<svg id="svg" version="1.1" xmlns="http://www.w3.org/2000/svg" xmlns:xlink="http://www.w3.org/1999/xlink" width="400" height="398.6666666666667" viewBox="0, 0, 400,398.6666666666667"><g id="svgg"><path id="path0" d="M0.000 13.380 L 0.000 26.761 12.928 26.641 C 20.039 26.575,26.006 26.371,26.189 26.189 C 26.371 26.006,26.575 20.039,26.641 12.928 L 26.761 0.000 13.380 0.000 L 0.000 0.000 0.000 13.380 M53.534 13.260 L 53.639 26.520 66.468 26.520 C 73.523 26.520,79.394 26.423,79.513 26.304 C 79.631 26.185,79.781 20.217,79.844 13.043 L 79.960 -0.001 66.695 -0.000 L 53.429 0.000 53.534 13.260 M106.879 11.164 L 106.879 22.329 105.184 23.096 C 104.252 23.519,101.977 24.507,100.129 25.292 L 96.769 26.720 89.960 26.724 C 86.215 26.727,82.478 26.840,81.655 26.976 L 80.160 27.223 80.153 31.259 C 80.146 36.053,80.428 35.558,76.027 38.498 C 72.075 41.137,63.446 47.953,59.898 51.239 C 57.828 53.155,57.359 53.404,55.607 53.515 L 53.639 53.639 53.514 55.621 C 53.405 57.353,53.152 57.858,51.518 59.610 C 47.675 63.728,41.678 71.281,38.496 76.009 C 35.642 80.250,35.883 80.112,31.084 80.244 L 26.919 80.359 26.720 89.133 C 26.535 97.253,26.454 98.031,25.624 99.583 C 25.132 100.505,24.345 102.299,23.876 103.571 C 22.561 107.139,23.563 106.879,11.118 106.879 L 0.000 106.879 0.000 120.040 L 0.000 133.200 7.079 133.207 C 16.126 133.214,15.379 132.471,14.535 140.626 C 14.152 144.328,13.731 150.229,13.599 153.739 L 13.360 160.120 6.680 160.229 L 0.000 160.338 0.000 173.489 L 0.000 186.640 7.876 186.646 C 12.208 186.650,15.995 186.806,16.290 186.993 C 16.800 187.316,17.987 191.430,18.737 195.469 C 18.926 196.487,19.264 197.653,19.488 198.061 C 19.712 198.470,20.376 200.419,20.962 202.393 C 21.549 204.367,22.138 206.162,22.272 206.381 C 22.518 206.787,23.668 209.874,24.314 211.865 C 24.911 213.705,24.213 213.804,11.559 213.676 L -0.001 213.559 -0.000 226.820 L 0.000 240.080 13.115 240.080 L 26.230 240.080 26.435 238.385 C 26.547 237.453,26.667 232.844,26.700 228.144 C 26.761 219.430,27.064 217.250,27.895 219.541 C 28.134 220.199,28.663 221.366,29.071 222.134 C 30.524 224.868,32.437 228.331,33.037 229.312 C 33.962 230.824,37.081 235.710,38.142 237.310 C 39.885 239.936,39.691 240.079,34.397 240.084 C 31.820 240.087,29.035 240.200,28.210 240.337 L 26.709 240.585 26.814 253.592 L 26.919 266.600 39.282 266.712 C 55.019 266.854,53.440 267.376,53.440 262.030 C 53.440 256.063,53.033 255.973,61.310 263.774 C 64.361 266.649,64.448 266.555,58.493 266.800 L 53.639 266.999 53.639 280.160 L 53.639 293.320 65.005 293.438 C 71.256 293.503,77.134 293.447,78.066 293.314 L 79.761 293.072 79.761 286.393 C 79.761 278.775,80.038 277.760,81.768 279.043 C 82.309 279.445,83.559 280.212,84.546 280.748 C 85.533 281.284,87.059 282.117,87.936 282.599 C 91.127 284.350,96.024 286.653,101.053 288.767 C 105.253 290.532,106.269 291.120,106.607 291.979 C 107.055 293.118,108.582 293.519,112.473 293.519 C 113.514 293.519,114.879 293.788,115.508 294.115 C 116.136 294.443,116.997 294.712,117.421 294.713 C 118.186 294.716,121.178 295.426,125.025 296.519 C 126.122 296.830,128.272 297.262,129.804 297.479 C 133.765 298.039,133.599 297.510,133.599 309.548 L 133.599 319.840 146.760 319.840 L 159.920 319.840 159.920 310.349 C 159.920 299.551,159.813 299.900,163.139 299.900 C 165.944 299.900,179.160 298.454,181.057 297.939 C 181.825 297.731,183.350 297.503,184.447 297.434 L 186.441 297.308 186.640 308.475 L 186.839 319.641 200.105 319.746 L 213.371 319.851 213.266 306.785 L 213.161 293.719 208.108 293.519 C 202.955 293.316,201.738 293.022,203.434 292.389 C 213.575 288.606,213.233 288.636,213.434 291.525 L 213.559 293.320 226.436 293.320 C 240.460 293.320,240.060 293.387,240.074 291.050 C 240.083 289.370,240.611 289.430,242.467 291.320 C 244.352 293.241,244.339 293.264,241.276 293.607 L 240.279 293.719 240.174 306.780 L 240.069 319.840 253.235 319.840 L 266.401 319.840 266.401 318.321 C 266.401 315.380,267.137 315.158,269.371 317.427 C 271.579 319.669,271.535 319.917,268.877 320.223 L 266.999 320.439 266.894 333.500 L 266.789 346.560 279.955 346.560 L 293.121 346.560 293.126 345.065 C 293.140 341.184,293.770 340.991,296.707 343.965 C 299.191 346.480,299.093 346.858,295.912 347.036 L 293.719 347.159 293.614 360.219 L 293.509 373.280 306.675 373.280 L 319.840 373.280 319.840 370.964 C 319.840 366.944,320.384 366.819,323.631 370.093 C 326.848 373.338,326.766 373.663,322.732 373.673 L 320.239 373.679 320.239 386.241 L 320.239 398.804 333.400 398.804 L 346.560 398.804 346.560 392.247 C 346.560 384.534,346.086 385.136,352.101 385.219 C 354.796 385.256,357.272 385.092,357.949 384.831 C 358.594 384.582,359.930 384.227,360.917 384.042 C 363.760 383.510,366.472 382.429,369.603 380.579 C 373.884 378.049,373.679 377.570,373.679 390.080 L 373.679 398.804 386.839 398.804 L 400.000 398.804 400.000 386.241 L 400.000 373.679 389.619 373.679 C 377.942 373.679,377.877 373.661,379.957 370.995 C 383.786 366.089,386.069 359.210,386.342 351.753 C 386.544 346.257,386.116 346.560,393.668 346.560 L 400.000 346.560 400.000 333.400 L 400.000 320.239 386.871 320.239 L 373.742 320.239 373.481 321.431 C 373.124 323.053,372.866 323.120,371.505 321.949 C 370.240 320.862,370.753 319.840,372.564 319.840 C 373.255 319.840,373.286 319.189,373.186 306.780 L 373.081 293.719 360.156 293.719 L 347.231 293.719 346.783 295.314 C 346.265 297.158,346.187 297.165,344.326 295.531 C 342.683 294.088,342.793 293.714,344.962 293.367 L 346.571 293.109 346.466 280.054 L 346.361 266.999 333.400 266.999 L 320.439 266.999 320.223 268.877 C 319.939 271.342,319.717 271.489,318.197 270.210 C 314.976 267.500,315.010 267.024,318.445 266.710 L 319.641 266.600 319.641 253.440 L 319.641 240.279 306.680 240.279 L 293.719 240.279 293.519 242.641 C 293.264 245.661,293.010 245.698,290.168 243.128 C 287.378 240.606,287.479 240.080,290.751 240.080 L 293.121 240.080 293.121 226.919 L 293.121 213.759 291.574 213.759 C 288.750 213.759,288.707 212.416,291.341 206.381 C 291.628 205.723,291.989 204.678,292.143 204.059 C 292.707 201.799,293.318 203.768,293.519 208.493 L 293.719 213.161 306.780 213.266 L 319.840 213.371 319.840 200.205 L 319.840 187.039 309.149 187.039 C 296.615 187.039,296.915 187.121,297.527 183.848 C 298.492 178.682,299.885 167.046,299.892 164.088 C 299.903 159.667,299.268 159.920,310.349 159.920 L 319.840 159.920 319.840 146.760 L 319.840 133.599 309.500 133.599 C 297.141 133.599,297.939 133.920,297.341 128.711 C 297.221 127.668,296.874 125.963,296.569 124.923 C 296.265 123.882,295.703 121.685,295.320 120.040 C 294.938 118.395,294.287 116.068,293.873 114.869 C 293.408 113.522,293.121 111.596,293.121 109.828 C 293.121 107.121,293.068 106.952,292.141 106.720 C 291.121 106.464,290.414 105.199,288.504 100.212 C 286.888 95.994,282.662 87.697,279.713 82.951 C 277.793 79.863,278.008 79.761,286.417 79.761 L 293.121 79.761 293.121 66.595 L 293.121 53.429 280.060 53.534 L 266.999 53.639 266.800 58.393 C 266.549 64.374,266.617 64.367,261.585 58.982 C 256.051 53.060,256.025 53.310,262.193 53.268 L 266.201 53.240 266.201 40.080 L 266.201 26.919 255.234 26.800 C 249.202 26.734,243.325 26.792,242.173 26.928 L 240.080 27.176 240.080 33.106 C 240.080 40.159,240.239 39.986,236.141 37.374 C 228.486 32.493,226.326 31.238,220.591 28.335 C 217.875 26.960,218.839 26.774,229.387 26.634 C 234.803 26.562,239.379 26.358,239.557 26.180 C 239.735 26.002,239.934 20.039,240.001 12.928 L 240.121 0.000 226.746 0.000 L 213.371 0.000 213.266 12.263 L 213.161 24.526 212.216 24.423 C 211.697 24.366,210.710 24.060,210.023 23.743 C 208.061 22.837,202.279 20.861,197.807 19.568 C 192.029 17.897,190.814 17.577,189.232 17.312 C 186.579 16.867,186.640 17.083,186.640 8.127 L 186.640 0.000 173.380 -0.001 L 160.120 -0.001 160.246 6.310 C 160.401 14.049,160.939 13.477,153.324 13.666 C 150.043 13.747,144.330 14.136,140.630 14.530 C 132.476 15.398,133.214 16.139,133.207 7.079 L 133.200 0.000 120.040 0.000 L 106.879 0.000 106.879 11.164 M266.894 13.260 L 266.999 26.520 279.828 26.520 C 286.883 26.520,292.754 26.423,292.872 26.304 C 292.991 26.185,293.141 20.217,293.204 13.043 L 293.320 -0.001 280.054 -0.000 L 266.789 0.000 266.894 13.260 M320.334 13.260 L 320.439 26.520 331.406 26.640 C 337.438 26.706,343.315 26.648,344.467 26.512 L 346.560 26.264 346.560 13.132 L 346.560 0.000 333.394 0.000 L 320.229 0.000 320.334 13.260 M373.586 12.861 C 373.644 19.935,373.773 25.947,373.872 26.221 C 374.012 26.606,377.009 26.720,387.026 26.720 L 400.000 26.720 400.000 13.360 L 400.000 0.000 386.740 -0.000 L 373.480 -0.001 373.586 12.861 M27.811 27.006 L 26.709 27.173 26.814 40.206 L 26.919 53.240 39.282 53.352 C 46.082 53.413,52.060 53.362,52.566 53.239 L 53.487 53.014 53.400 40.166 C 53.341 31.420,53.174 27.225,52.878 27.025 C 52.431 26.724,29.790 26.707,27.811 27.006 M294.611 27.003 L 293.509 27.173 293.614 40.206 L 293.719 53.240 306.680 53.240 L 319.641 53.240 319.641 40.080 L 319.641 26.919 307.677 26.876 C 301.097 26.853,295.217 26.910,294.611 27.003 M347.851 26.999 L 346.948 27.176 347.053 40.208 L 347.159 53.240 360.120 53.240 L 373.081 53.240 373.081 40.080 L 373.081 26.919 360.917 26.871 C 354.227 26.844,348.348 26.902,347.851 26.999 M-0.000 66.695 L -0.001 79.960 13.043 79.844 C 20.217 79.781,26.185 79.631,26.304 79.513 C 26.423 79.394,26.520 73.523,26.520 66.468 L 26.520 53.639 13.260 53.534 L 0.000 53.429 -0.000 66.695 M320.239 66.595 L 320.239 79.761 333.405 79.761 L 346.571 79.761 346.466 66.700 L 346.361 53.639 333.300 53.534 L 320.239 53.429 320.239 66.595 M373.679 66.600 L 373.679 79.761 386.839 79.761 L 400.000 79.761 400.000 66.600 L 400.000 53.440 386.839 53.440 L 373.679 53.440 373.679 66.600 M159.930 71.611 C 160.144 72.174,160.319 74.240,160.319 76.203 L 160.319 79.772 173.380 79.666 L 186.441 79.561 186.571 78.365 C 186.800 76.268,188.190 76.284,192.027 78.429 C 194.339 79.721,193.876 80.145,190.144 80.153 C 186.451 80.162,186.610 79.519,186.734 94.003 L 186.839 106.281 200.100 106.386 L 213.360 106.491 213.360 99.972 C 213.360 96.387,213.475 93.338,213.615 93.198 C 213.928 92.885,216.458 94.853,218.290 96.837 C 227.736 107.061,227.707 106.814,219.458 106.968 L 213.559 107.079 213.559 120.040 L 213.559 133.001 226.321 133.200 C 233.340 133.310,239.307 133.545,239.581 133.722 C 239.963 133.970,240.080 137.071,240.080 146.983 L 240.080 159.920 241.028 159.920 C 242.822 159.920,243.074 160.772,242.546 165.038 C 240.939 178.015,240.158 179.170,240.108 168.644 C 240.092 165.436,239.967 162.248,239.829 161.560 L 239.579 160.308 226.569 160.413 L 213.559 160.518 213.559 173.480 L 213.559 186.441 225.192 186.640 C 237.375 186.849,237.681 186.893,236.997 188.336 C 236.762 188.829,235.589 191.307,234.389 193.843 C 231.861 199.185,229.442 203.146,225.513 208.377 C 221.621 213.559,221.402 213.701,217.106 213.842 L 213.559 213.958 213.444 217.691 C 213.306 222.173,214.113 221.188,204.985 228.024 C 202.635 229.784,193.438 234.865,192.571 234.882 C 192.214 234.889,191.703 235.160,191.434 235.483 C 191.166 235.806,190.335 236.185,189.587 236.326 C 188.839 236.466,188.123 236.749,187.996 236.954 C 186.930 238.678,186.640 236.134,186.640 225.076 L 186.640 213.759 173.480 213.759 L 160.319 213.759 160.319 226.919 L 160.319 240.080 166.800 240.108 C 178.063 240.157,177.017 241.088,164.126 242.489 C 160.720 242.859,160.059 242.652,159.844 241.148 L 159.721 240.279 147.159 240.181 C 131.337 240.057,133.200 241.941,133.200 226.077 L 133.200 213.759 120.040 213.759 L 106.879 213.759 106.873 219.242 C 106.866 225.859,106.710 226.247,104.617 224.853 C 101.482 222.764,93.197 214.727,93.436 214.007 C 93.536 213.707,95.712 213.523,100.033 213.450 L 106.481 213.340 106.481 200.190 L 106.481 187.039 93.320 187.039 L 80.160 187.039 80.154 189.332 C 80.143 193.909,79.610 194.265,77.967 190.793 C 76.613 187.930,76.741 186.881,78.465 186.715 L 79.761 186.590 79.761 173.454 L 79.761 160.319 75.872 160.313 C 71.590 160.306,71.163 160.172,70.807 158.720 C 70.270 156.526,71.653 143.570,73.034 137.862 C 74.086 133.512,74.378 133.200,77.396 133.200 L 79.761 133.200 79.761 126.118 C 79.761 118.444,79.720 118.619,82.590 113.896 C 83.002 113.218,83.533 112.217,83.769 111.673 C 84.005 111.129,84.321 110.591,84.473 110.477 C 84.624 110.363,85.253 109.524,85.870 108.614 C 87.322 106.472,87.213 106.492,97.607 106.486 L 106.481 106.481 106.481 96.929 L 106.481 87.378 108.973 85.616 C 116.610 80.217,117.953 79.761,126.196 79.761 L 133.200 79.761 133.206 77.667 C 133.215 74.317,133.447 73.871,135.333 73.580 C 136.244 73.440,137.797 73.072,138.784 72.763 C 141.497 71.913,150.987 70.828,157.238 70.653 C 159.370 70.593,159.570 70.664,159.930 71.611 M133.871 80.420 C 133.721 80.569,133.599 86.494,133.599 93.586 L 133.599 106.481 146.765 106.481 L 159.931 106.481 159.826 93.420 L 159.721 80.359 146.931 80.254 C 139.897 80.196,134.020 80.271,133.871 80.420 M293.785 80.425 C 293.639 80.572,293.519 86.494,293.519 93.586 L 293.519 106.481 306.680 106.481 L 319.840 106.481 319.840 93.320 L 319.840 80.160 306.946 80.160 C 299.854 80.160,293.932 80.279,293.785 80.425 M347.230 80.420 C 347.081 80.569,346.959 86.494,346.959 93.586 L 346.959 106.481 360.125 106.481 L 373.291 106.481 373.186 93.420 L 373.081 80.359 360.291 80.254 C 353.257 80.196,347.380 80.271,347.230 80.420 M106.879 120.040 L 106.879 133.200 120.040 133.200 L 133.200 133.200 133.200 120.040 L 133.200 106.879 120.040 106.879 L 106.879 106.879 106.879 120.040 M160.319 120.040 L 160.319 133.211 173.380 133.106 L 186.441 133.001 186.441 120.040 L 186.441 107.079 173.380 106.974 L 160.319 106.868 160.319 120.040 M320.239 120.040 L 320.239 133.200 333.400 133.200 L 346.560 133.200 346.560 120.040 L 346.560 106.879 333.400 106.879 L 320.239 106.879 320.239 120.040 M373.679 120.040 L 373.679 133.200 386.839 133.200 L 400.000 133.200 400.000 120.040 L 400.000 106.879 386.839 106.879 L 373.679 106.879 373.679 120.040 M80.160 146.760 L 80.160 159.920 93.320 159.920 L 106.481 159.920 106.481 146.760 L 106.481 133.599 93.320 133.599 L 80.160 133.599 80.160 146.760 M133.599 146.760 L 133.599 159.920 146.760 159.920 L 159.920 159.920 159.920 146.760 L 159.920 133.599 146.760 133.599 L 133.599 133.599 133.599 146.760 M186.846 135.294 C 186.713 136.226,186.657 142.104,186.722 148.355 L 186.839 159.721 200.100 159.826 L 213.360 159.931 213.360 146.765 L 213.360 133.599 200.224 133.599 L 187.088 133.599 186.846 135.294 M346.959 146.760 L 346.959 159.920 360.120 159.920 L 373.280 159.920 373.280 146.760 L 373.280 133.599 360.120 133.599 L 346.959 133.599 346.959 146.760 M106.879 173.485 L 106.879 186.651 119.940 186.546 L 133.001 186.441 133.106 173.380 L 133.211 160.319 120.045 160.319 L 106.879 160.319 106.879 173.485 M160.319 173.485 L 160.319 186.651 173.380 186.546 L 186.441 186.441 186.546 173.380 L 186.651 160.319 173.485 160.319 L 160.319 160.319 160.319 173.485 M320.239 173.485 L 320.239 186.651 333.300 186.546 L 346.361 186.441 346.466 173.380 L 346.571 160.319 333.405 160.319 L 320.239 160.319 320.239 173.485 M373.679 173.480 L 373.679 186.640 386.839 186.640 L 400.000 186.640 400.000 173.480 L 400.000 160.319 386.839 160.319 L 373.679 160.319 373.679 173.480 M133.599 200.205 L 133.599 213.371 146.660 213.266 L 159.721 213.161 159.826 200.100 L 159.931 187.039 146.765 187.039 L 133.599 187.039 133.599 200.205 M186.846 188.734 C 186.713 189.666,186.657 195.543,186.722 201.795 L 186.839 213.161 200.000 213.161 L 213.161 213.161 213.266 200.100 L 213.371 187.039 200.229 187.039 L 187.088 187.039 186.846 188.734 M346.959 200.205 L 346.959 213.371 360.020 213.266 L 373.081 213.161 373.186 200.100 L 373.291 187.039 360.125 187.039 L 346.959 187.039 346.959 200.205 M320.239 226.925 L 320.239 240.091 333.300 239.986 L 346.361 239.880 346.466 226.820 L 346.571 213.759 333.405 213.759 L 320.239 213.759 320.239 226.925 M373.679 226.919 L 373.679 240.080 386.839 240.080 L 400.000 240.080 400.000 226.919 L 400.000 213.759 386.839 213.759 L 373.679 213.759 373.679 226.919 M347.851 240.359 L 346.948 240.535 347.053 253.568 L 347.159 266.600 360.120 266.600 L 373.081 266.600 373.081 253.440 L 373.081 240.279 360.917 240.231 C 354.227 240.204,348.348 240.262,347.851 240.359 M0.000 280.175 L 0.000 293.560 12.928 293.440 C 20.039 293.374,26.006 293.171,26.189 292.988 C 26.371 292.806,26.520 286.883,26.520 279.828 L 26.520 266.999 13.260 266.894 L 0.000 266.789 0.000 280.175 M373.860 267.302 C 373.754 267.578,373.715 273.545,373.773 280.562 L 373.878 293.320 386.939 293.425 L 400.000 293.530 400.000 280.165 L 400.000 266.800 387.026 266.800 C 376.968 266.800,374.009 266.912,373.860 267.302 M26.991 293.780 C 26.842 293.929,26.720 299.856,26.720 306.951 L 26.720 319.851 39.980 319.746 L 53.240 319.641 53.240 306.680 L 53.240 293.719 40.251 293.614 C 33.107 293.556,27.140 293.631,26.991 293.780 M80.431 293.780 C 80.282 293.929,80.160 299.854,80.160 306.946 L 80.160 319.840 93.325 319.840 L 106.491 319.840 106.386 306.780 L 106.281 293.719 93.492 293.614 C 86.457 293.556,80.580 293.631,80.431 293.780 M-0.000 333.494 L -0.001 346.760 13.043 346.644 C 20.217 346.580,26.185 346.431,26.304 346.312 C 26.423 346.193,26.520 340.323,26.520 333.267 L 26.520 320.439 13.260 320.334 L 0.000 320.229 -0.000 333.494 M53.706 320.505 C 53.559 320.651,53.440 326.574,53.440 333.666 L 53.440 346.560 66.600 346.560 L 79.761 346.560 79.761 333.400 L 79.761 320.239 66.866 320.239 C 59.774 320.239,53.852 320.359,53.706 320.505 M107.151 320.500 C 107.001 320.649,106.879 326.574,106.879 333.666 L 106.879 346.560 120.045 346.560 L 133.211 346.560 133.106 333.500 L 133.001 320.439 120.211 320.334 C 113.177 320.276,107.300 320.351,107.151 320.500 M160.319 333.400 L 160.319 346.571 173.380 346.466 L 186.441 346.361 186.441 333.400 L 186.441 320.439 173.380 320.334 L 160.319 320.228 160.319 333.400 M213.525 320.784 C 213.408 321.089,213.367 326.969,213.436 333.850 L 213.559 346.361 226.595 346.466 L 239.630 346.571 239.873 344.871 C 240.007 343.936,240.063 338.056,239.998 331.805 L 239.880 320.439 226.809 320.334 C 215.937 320.246,213.702 320.322,213.525 320.784 M26.991 347.220 C 26.842 347.369,26.720 353.296,26.720 360.391 L 26.720 373.291 39.980 373.186 L 53.240 373.081 53.240 360.120 L 53.240 347.159 40.251 347.053 C 33.107 346.996,27.140 347.070,26.991 347.220 M80.425 347.225 C 80.279 347.371,80.160 353.293,80.160 360.386 L 80.160 373.280 93.320 373.280 L 106.481 373.280 106.481 360.120 L 106.481 346.959 93.586 346.959 C 86.494 346.959,80.572 347.079,80.425 347.225 M133.599 360.120 L 133.599 373.280 146.760 373.280 L 159.920 373.280 159.920 360.120 L 159.920 346.959 146.760 346.959 L 133.599 346.959 133.599 360.120 M186.849 349.047 C 186.712 350.202,186.654 356.082,186.720 362.114 L 186.839 373.081 200.105 373.186 L 213.371 373.291 213.266 360.225 L 213.161 347.159 200.129 347.053 L 187.098 346.948 186.849 349.047 M240.346 347.225 C 240.199 347.371,240.080 353.293,240.080 360.386 L 240.080 373.280 253.240 373.280 L 266.401 373.280 266.401 360.120 L 266.401 346.959 253.506 346.959 C 246.414 346.959,240.492 347.079,240.346 347.225 M0.000 386.236 L 0.000 398.804 13.291 398.804 L 26.583 398.804 26.552 386.341 L 26.520 373.878 13.260 373.773 L 0.000 373.668 0.000 386.236 M53.440 386.241 L 53.440 398.804 66.600 398.804 L 79.761 398.804 79.761 386.241 L 79.761 373.679 66.600 373.679 L 53.440 373.679 53.440 386.241 M106.879 386.241 L 106.879 398.804 120.040 398.804 L 133.200 398.804 133.200 386.241 L 133.200 373.679 120.040 373.679 L 106.879 373.679 106.879 386.241 M160.319 386.241 L 160.319 398.804 173.480 398.804 L 186.640 398.804 186.640 386.241 L 186.640 373.679 173.480 373.679 L 160.319 373.679 160.319 386.241 M213.558 374.080 C 213.418 374.306,213.350 379.962,213.407 386.647 L 213.511 398.804 226.727 398.804 L 239.942 398.804 239.911 386.341 L 239.880 373.878 226.846 373.773 C 218.206 373.704,213.727 373.807,213.558 374.080 M266.800 386.241 L 266.800 398.804 279.960 398.804 L 293.121 398.804 293.121 386.241 L 293.121 373.679 279.960 373.679 L 266.800 373.679 266.800 386.241 " stroke="none" fill="#fcfcfc" fill-rule="evenodd"></path><path id="path1" d="M27.119 13.166 L 27.119 26.332 39.980 26.227 L 52.841 26.122 52.953 13.958 C 53.014 7.268,52.966 1.391,52.846 0.897 L 52.627 0.000 39.873 0.000 L 27.119 0.000 27.119 13.166 M80.558 13.161 L 80.558 26.321 88.278 26.321 L 95.998 26.321 98.676 24.925 C 100.149 24.158,101.655 23.524,102.023 23.517 C 102.391 23.510,103.040 23.241,103.466 22.919 C 103.892 22.596,104.655 22.333,105.161 22.333 L 106.082 22.333 106.082 11.167 L 106.082 0.000 93.320 0.000 L 80.558 0.000 80.558 13.161 M133.925 6.481 C 133.847 10.045,133.852 13.275,133.937 13.659 C 134.137 14.565,137.537 14.621,139.980 13.759 C 141.179 13.336,143.326 13.160,147.308 13.158 C 150.406 13.157,154.422 13.040,156.231 12.900 L 159.521 12.643 159.521 6.322 L 159.521 0.000 146.795 -0.000 L 134.068 -0.000 133.925 6.481 M187.232 0.897 C 187.110 1.391,187.062 4.922,187.125 8.745 L 187.238 15.696 188.435 16.061 C 189.093 16.262,190.708 16.662,192.024 16.950 C 193.340 17.238,194.955 17.665,195.613 17.899 C 197.950 18.729,202.338 19.940,203.009 19.940 C 203.384 19.940,203.914 20.209,204.187 20.538 C 204.460 20.867,205.089 21.137,205.583 21.137 C 206.078 21.137,206.706 21.406,206.979 21.735 C 207.252 22.064,207.958 22.333,208.547 22.333 C 209.136 22.333,209.967 22.596,210.392 22.919 C 210.818 23.241,211.570 23.510,212.064 23.517 L 212.961 23.529 212.961 11.765 L 212.961 0.000 200.207 0.000 L 187.453 0.000 187.232 0.897 M240.479 13.166 L 240.479 26.332 253.340 26.227 L 266.201 26.122 266.313 13.958 C 266.374 7.268,266.326 1.391,266.206 0.897 L 265.987 0.000 253.233 0.000 L 240.479 0.000 240.479 13.166 M293.918 13.161 L 293.918 26.321 306.680 26.321 L 319.442 26.321 319.442 13.161 L 319.442 0.000 306.680 0.000 L 293.918 0.000 293.918 13.161 M347.358 13.161 L 347.358 26.321 360.120 26.321 L 372.881 26.321 372.881 13.161 L 372.881 0.000 360.120 0.000 L 347.358 0.000 347.358 13.161 M0.000 40.080 L 0.000 53.041 13.161 53.041 L 26.321 53.041 26.321 40.080 L 26.321 27.119 13.161 27.119 L 0.000 27.119 0.000 40.080 M53.838 40.074 L 53.838 53.041 55.266 53.041 C 56.493 53.041,57.177 52.597,60.151 49.870 C 62.053 48.127,64.521 46.018,65.636 45.184 C 66.750 44.351,67.957 43.400,68.318 43.071 C 70.033 41.505,74.496 38.285,74.951 38.285 C 75.184 38.285,75.374 38.100,75.374 37.873 C 75.374 37.647,75.688 37.327,76.072 37.163 C 79.525 35.682,79.849 35.084,79.680 30.507 L 79.561 27.318 66.700 27.213 L 53.838 27.108 53.838 40.074 M221.735 27.889 C 222.502 28.312,223.576 28.862,224.120 29.110 C 224.663 29.358,225.202 29.687,225.316 29.840 C 225.430 29.993,226.510 30.623,227.717 31.241 C 230.241 32.535,235.227 35.577,236.056 36.330 C 236.549 36.778,239.255 38.285,239.566 38.285 C 239.629 38.285,239.681 35.773,239.681 32.702 L 239.681 27.119 230.010 27.119 L 220.339 27.120 221.735 27.889 M267.198 40.080 L 267.198 53.041 279.960 53.041 L 292.722 53.041 292.722 40.080 L 292.722 27.119 279.960 27.119 L 267.198 27.119 267.198 40.080 M320.638 40.080 L 320.638 53.041 333.400 53.041 L 346.162 53.041 346.162 40.080 L 346.162 27.119 333.400 27.119 L 320.638 27.119 320.638 40.080 M373.860 27.621 C 373.754 27.897,373.715 33.685,373.773 40.482 L 373.878 52.841 386.939 52.947 L 400.000 53.052 400.000 40.085 L 400.000 27.119 387.026 27.119 C 376.962 27.119,374.010 27.231,373.860 27.621 M27.213 66.700 L 27.318 79.561 30.507 79.680 C 34.406 79.824,35.225 79.638,35.821 78.474 C 36.533 77.084,37.170 76.123,38.584 74.310 C 39.297 73.395,39.880 72.472,39.880 72.259 C 39.880 72.045,40.150 71.767,40.479 71.640 C 40.808 71.514,41.077 71.226,41.077 71.000 C 41.077 70.773,41.391 70.255,41.775 69.847 C 42.159 69.439,43.011 68.420,43.669 67.582 C 44.327 66.744,45.179 65.732,45.563 65.333 C 45.947 64.933,46.261 64.494,46.261 64.357 C 46.261 64.220,47.787 62.422,49.651 60.362 C 52.539 57.171,53.041 56.410,53.041 55.227 L 53.041 53.838 40.074 53.838 L 27.108 53.838 27.213 66.700 M259.922 55.811 C 260.963 56.897,262.712 58.781,263.809 59.998 C 266.413 62.890,266.401 62.900,266.401 58.026 L 266.401 53.838 262.215 53.838 L 258.030 53.838 259.922 55.811 M293.918 66.800 L 293.918 79.761 306.680 79.761 L 319.442 79.761 319.442 66.800 L 319.442 53.838 306.680 53.838 L 293.918 53.838 293.918 66.800 M347.358 66.800 L 347.358 79.761 360.120 79.761 L 372.881 79.761 372.881 66.800 L 372.881 53.838 360.120 53.838 L 347.358 53.838 347.358 66.800 M149.093 72.200 C 145.881 72.371,142.919 72.689,142.513 72.906 C 142.107 73.123,140.877 73.428,139.781 73.583 C 138.684 73.738,136.934 74.135,135.892 74.466 L 133.998 75.067 133.998 77.414 L 133.998 79.761 146.774 79.761 L 159.550 79.761 159.436 75.872 L 159.322 71.984 157.129 71.936 C 155.922 71.910,152.306 72.028,149.093 72.200 M187.190 78.346 C 187.068 78.664,187.084 79.113,187.226 79.343 C 187.556 79.876,191.426 79.894,191.426 79.362 C 191.426 79.143,191.179 78.963,190.876 78.963 C 190.574 78.963,190.104 78.694,189.831 78.365 C 189.196 77.601,187.481 77.588,187.190 78.346 M0.000 93.277 C 0.000 104.508,0.074 106.025,0.631 106.238 C 1.454 106.554,20.879 106.554,21.702 106.238 C 22.049 106.105,22.333 105.601,22.333 105.118 C 22.333 104.635,22.596 103.892,22.919 103.466 C 23.241 103.040,23.513 102.423,23.523 102.094 C 23.534 101.765,24.168 100.239,24.932 98.704 L 26.320 95.912 26.321 88.235 L 26.321 80.558 13.161 80.558 L 0.000 80.558 0.000 93.277 M118.671 80.913 C 118.551 81.108,117.991 81.383,117.428 81.525 C 116.865 81.666,115.519 82.404,114.438 83.164 C 113.356 83.924,112.360 84.546,112.225 84.546 C 112.090 84.546,111.325 85.040,110.524 85.643 C 109.724 86.246,108.711 86.939,108.274 87.182 C 107.518 87.601,107.472 88.102,107.371 97.052 L 107.264 106.481 120.033 106.481 L 132.802 106.481 132.802 93.519 L 132.802 80.558 125.846 80.558 C 122.021 80.558,118.792 80.718,118.671 80.913 M160.413 93.420 L 160.518 106.281 173.380 106.386 L 186.241 106.492 186.241 93.525 L 186.241 80.558 173.275 80.558 L 160.308 80.558 160.413 93.420 M280.084 81.655 C 280.350 82.258,281.033 83.470,281.601 84.347 C 282.170 85.224,283.121 86.970,283.716 88.227 C 284.310 89.484,284.950 90.608,285.139 90.724 C 285.328 90.841,285.597 91.460,285.738 92.101 C 285.878 92.741,286.251 93.479,286.566 93.740 C 286.881 94.001,287.139 94.552,287.139 94.964 C 287.139 95.376,287.311 95.713,287.522 95.713 C 287.733 95.713,288.097 96.423,288.330 97.291 C 288.564 98.159,288.910 98.965,289.098 99.081 C 289.287 99.198,289.553 99.889,289.689 100.616 C 289.952 102.016,291.101 104.489,291.990 105.567 C 292.787 106.534,292.945 103.676,292.783 91.205 L 292.644 80.558 286.122 80.558 L 279.600 80.558 280.084 81.655 M320.638 93.519 L 320.638 106.481 333.400 106.481 L 346.162 106.481 346.162 93.519 L 346.162 80.558 333.400 80.558 L 320.638 80.558 320.638 93.519 M373.773 93.420 L 373.878 106.281 386.939 106.386 L 400.000 106.491 400.000 93.525 L 400.000 80.558 386.834 80.558 L 373.668 80.558 373.773 93.420 M213.848 100.144 L 213.958 106.281 219.442 106.392 C 222.458 106.453,224.925 106.401,224.925 106.276 C 224.925 106.037,223.411 103.823,222.732 103.068 C 222.512 102.824,221.525 101.675,220.538 100.514 C 217.720 97.199,216.857 96.320,215.244 95.124 L 213.737 94.007 213.848 100.144 M87.139 108.475 C 86.798 109.133,86.345 109.671,86.131 109.671 C 85.918 109.671,85.743 109.841,85.743 110.050 C 85.743 110.258,85.211 111.217,84.560 112.181 C 83.910 113.145,83.189 114.365,82.958 114.893 C 82.728 115.421,82.093 116.643,81.549 117.610 C 80.603 119.289,80.558 119.670,80.558 126.085 L 80.558 132.802 93.320 132.802 L 106.082 132.802 106.082 120.040 L 106.082 107.278 96.920 107.278 L 87.757 107.278 87.139 108.475 M133.998 120.040 L 133.998 132.802 146.760 132.802 L 159.521 132.802 159.521 120.040 L 159.521 107.278 146.760 107.278 L 133.998 107.278 133.998 120.040 M187.039 120.040 L 187.039 132.802 200.000 132.802 L 212.961 132.802 212.961 120.040 L 212.961 107.278 200.000 107.278 L 187.039 107.278 187.039 120.040 M293.931 110.169 C 293.939 112.077,294.143 113.324,294.529 113.835 C 294.851 114.261,295.115 114.954,295.115 115.377 C 295.115 115.799,295.371 116.976,295.685 117.992 C 296.380 120.242,296.985 122.651,297.652 125.823 C 297.929 127.139,298.368 128.607,298.629 129.086 C 298.889 129.566,299.103 130.597,299.103 131.380 L 299.103 132.802 309.272 132.802 L 319.442 132.802 319.442 120.040 L 319.442 107.278 306.680 107.278 L 293.918 107.278 293.931 110.169 M347.358 120.040 L 347.358 132.802 360.120 132.802 L 372.881 132.802 372.881 120.040 L 372.881 107.278 360.120 107.278 L 347.358 107.278 347.358 120.040 M5.882 133.897 L 0.000 134.019 0.000 146.770 L 0.000 159.521 6.322 159.521 L 12.645 159.521 12.903 156.470 C 13.044 154.792,13.161 150.872,13.161 147.760 C 13.161 143.890,13.348 141.482,13.754 140.143 C 15.034 135.924,14.371 133.235,12.164 133.693 C 11.944 133.738,9.118 133.830,5.882 133.897 M224.626 133.882 L 213.759 134.011 213.759 146.766 L 213.759 159.521 226.720 159.521 L 239.681 159.521 239.668 147.458 C 239.659 138.190,239.535 135.236,239.137 134.711 C 238.443 133.797,237.294 133.732,224.626 133.882 M74.506 135.892 C 74.146 136.934,73.724 138.774,73.570 139.980 C 73.417 141.186,73.138 142.363,72.952 142.594 C 72.534 143.114,71.725 157.414,72.045 158.636 C 72.263 159.471,72.488 159.521,76.019 159.521 L 79.761 159.521 79.761 146.760 L 79.761 133.998 77.462 133.998 L 75.162 133.998 74.506 135.892 M107.278 146.760 L 107.278 159.521 120.040 159.521 L 132.802 159.521 132.802 146.760 L 132.802 133.998 120.040 133.998 L 107.278 133.998 107.278 146.760 M160.319 146.760 L 160.319 159.521 173.280 159.521 L 186.241 159.521 186.241 146.760 L 186.241 133.998 173.280 133.998 L 160.319 133.998 160.319 146.760 M320.638 146.760 L 320.638 159.521 333.400 159.521 L 346.162 159.521 346.162 146.760 L 346.162 133.998 333.400 133.998 L 320.638 133.998 320.638 146.760 M373.679 146.760 L 373.679 159.521 386.839 159.521 L 400.000 159.521 400.000 146.760 L 400.000 133.998 386.839 133.998 L 373.679 133.998 373.679 146.760 M80.558 173.480 L 80.558 186.241 93.320 186.241 L 106.082 186.241 106.082 173.480 L 106.082 160.718 93.320 160.718 L 80.558 160.718 80.558 173.480 M133.998 173.480 L 133.998 186.241 146.760 186.241 L 159.521 186.241 159.521 173.480 L 159.521 160.718 146.760 160.718 L 133.998 160.718 133.998 173.480 M187.039 173.480 L 187.039 186.241 200.000 186.241 L 212.961 186.241 212.961 173.480 L 212.961 160.718 200.000 160.718 L 187.039 160.718 187.039 173.480 M240.546 166.401 C 240.582 169.526,240.680 171.366,240.763 170.489 C 240.845 169.611,241.163 167.308,241.468 165.369 C 242.048 161.681,241.958 160.718,241.034 160.718 C 240.582 160.718,240.491 161.777,240.546 166.401 M300.957 161.416 C 300.850 161.800,300.642 164.967,300.494 168.455 C 300.346 171.943,299.974 175.622,299.668 176.631 C 299.362 177.639,299.107 179.182,299.101 180.060 C 299.095 180.937,298.847 182.687,298.551 183.948 L 298.011 186.241 308.726 186.241 L 319.442 186.241 319.442 173.480 L 319.442 160.718 310.296 160.718 C 301.926 160.718,301.134 160.777,300.957 161.416 M347.358 173.480 L 347.358 186.241 360.120 186.241 L 372.881 186.241 372.881 173.480 L 372.881 160.718 360.120 160.718 L 347.358 160.718 347.358 173.480 M0.499 187.303 C 0.114 187.458,0.000 190.423,0.000 200.233 L 0.000 212.961 11.765 212.961 L 23.529 212.961 23.529 211.964 C 23.529 211.416,23.352 210.967,23.135 210.967 C 22.919 210.967,22.627 210.253,22.487 209.379 C 22.348 208.506,21.987 207.587,21.685 207.337 C 21.383 207.086,21.137 206.438,21.137 205.895 C 21.137 205.353,20.882 204.432,20.570 203.850 C 19.826 202.460,18.758 199.209,18.388 197.208 C 18.226 196.331,17.905 195.254,17.676 194.816 C 17.446 194.377,17.138 193.210,16.991 192.223 C 16.843 191.236,16.436 189.666,16.084 188.734 L 15.445 187.039 8.221 187.070 C 4.248 187.088,0.773 187.192,0.499 187.303 M107.278 200.000 L 107.278 212.961 120.040 212.961 L 132.802 212.961 132.802 200.000 L 132.802 187.039 120.040 187.039 L 107.278 187.039 107.278 200.000 M160.585 187.305 C 160.439 187.451,160.319 193.283,160.319 200.266 L 160.319 212.961 173.280 212.961 L 186.241 212.961 186.241 200.000 L 186.241 187.039 173.546 187.039 C 166.564 187.039,160.731 187.159,160.585 187.305 M214.025 187.305 C 213.878 187.451,213.759 193.283,213.759 200.266 L 213.759 212.961 217.169 212.961 L 220.579 212.961 221.960 211.466 C 222.720 210.643,223.832 209.252,224.431 208.375 C 225.031 207.498,225.746 206.636,226.021 206.461 C 226.296 206.285,226.520 205.882,226.520 205.563 C 226.520 205.245,226.671 204.985,226.855 204.985 C 227.039 204.985,227.400 204.581,227.657 204.088 C 227.914 203.594,228.436 202.714,228.818 202.132 C 230.116 200.152,231.654 197.400,231.906 196.605 C 232.044 196.169,232.325 195.813,232.529 195.813 C 232.734 195.813,232.901 195.529,232.901 195.182 C 232.901 194.835,233.500 193.530,234.231 192.282 C 235.870 189.485,236.336 187.838,235.616 187.382 C 234.999 186.991,214.412 186.917,214.025 187.305 M320.638 200.000 L 320.638 212.961 333.400 212.961 L 346.162 212.961 346.162 200.000 L 346.162 187.039 333.400 187.039 L 320.638 187.039 320.638 200.000 M373.945 187.305 C 373.799 187.451,373.679 193.283,373.679 200.266 L 373.679 212.961 386.839 212.961 L 400.000 212.961 400.000 200.000 L 400.000 187.039 387.105 187.039 C 380.013 187.039,374.091 187.159,373.945 187.305 M77.767 188.212 C 77.767 188.637,77.957 189.104,78.190 189.248 C 78.423 189.391,78.820 189.985,79.072 190.567 C 79.581 191.740,80.089 189.266,79.600 187.994 C 79.266 187.122,77.767 187.300,77.767 188.212 M291.831 207.748 C 291.451 208.551,291.024 209.786,290.882 210.494 C 290.741 211.202,290.469 211.878,290.278 211.996 C 289.503 212.474,290.010 212.961,291.283 212.961 C 292.928 212.961,293.171 212.277,292.787 208.728 L 292.522 206.289 291.831 207.748 M95.181 214.025 C 95.035 214.171,94.915 214.421,94.915 214.581 C 94.915 214.964,100.856 220.937,101.238 220.937 C 101.400 220.937,102.234 221.655,103.091 222.532 C 103.947 223.410,104.866 224.128,105.132 224.128 C 105.399 224.128,105.707 224.352,105.818 224.626 C 105.928 224.900,106.033 222.567,106.050 219.442 L 106.082 213.759 100.764 213.759 C 97.840 213.759,95.327 213.878,95.181 214.025 M134.001 226.022 L 134.003 238.285 135.229 238.983 C 136.319 239.603,137.738 239.681,147.988 239.681 L 159.521 239.681 159.521 226.720 L 159.521 213.759 146.760 213.759 L 133.998 213.759 134.001 226.022 M187.221 214.258 C 187.113 214.539,187.073 219.521,187.132 225.330 L 187.238 235.892 188.295 235.784 C 188.877 235.724,190.550 235.051,192.013 234.288 C 193.477 233.525,194.930 232.901,195.243 232.901 C 195.556 232.901,195.813 232.741,195.813 232.546 C 195.813 232.350,196.304 232.067,196.905 231.916 C 197.506 231.765,198.090 231.521,198.201 231.373 C 198.539 230.927,201.615 228.913,201.958 228.913 C 202.134 228.913,202.958 228.375,203.789 227.717 C 204.619 227.059,205.458 226.520,205.652 226.520 C 205.846 226.520,206.285 226.206,206.629 225.823 C 206.973 225.439,207.666 224.855,208.170 224.526 C 208.674 224.197,209.504 223.569,210.013 223.131 C 210.523 222.692,211.402 221.936,211.967 221.451 C 212.938 220.617,212.988 220.390,212.878 217.264 L 212.762 213.958 200.089 213.853 C 190.085 213.770,187.376 213.855,187.221 214.258 M293.918 226.720 L 293.918 239.681 306.680 239.681 L 319.442 239.681 319.442 226.720 L 319.442 213.759 306.680 213.759 L 293.918 213.759 293.918 226.720 M347.358 226.720 L 347.358 239.681 360.120 239.681 L 372.881 239.681 372.881 226.720 L 372.881 213.759 360.120 213.759 L 347.358 213.759 347.358 226.720 M27.119 230.253 L 27.119 239.681 32.702 239.681 C 37.821 239.681,39.095 239.431,37.862 238.669 C 37.629 238.525,37.268 238.021,37.060 237.548 C 36.852 237.076,35.967 235.613,35.095 234.297 C 34.222 232.981,33.338 231.518,33.130 231.046 C 32.921 230.574,32.574 230.078,32.358 229.944 C 32.142 229.811,31.848 229.165,31.704 228.510 C 31.560 227.854,31.318 227.318,31.166 227.318 C 31.015 227.318,30.446 226.474,29.902 225.442 C 29.358 224.411,28.509 222.950,28.016 222.196 L 27.119 220.826 27.119 230.253 M0.000 253.440 L 0.000 266.401 13.161 266.401 L 26.321 266.401 26.321 253.440 L 26.321 240.479 13.161 240.479 L 0.000 240.479 0.000 253.440 M160.718 240.877 C 160.718 241.367,167.356 241.367,168.495 240.877 C 169.009 240.656,167.772 240.525,165.005 240.507 C 162.394 240.490,160.718 240.634,160.718 240.877 M289.531 240.801 C 289.531 241.207,290.220 242.010,291.625 243.244 L 292.722 244.207 292.722 242.343 L 292.722 240.479 291.127 240.479 C 290.249 240.479,289.531 240.624,289.531 240.801 M320.638 253.440 L 320.638 266.401 333.400 266.401 L 346.162 266.401 346.162 253.440 L 346.162 240.479 333.400 240.479 L 320.638 240.479 320.638 253.440 M373.860 240.981 C 373.754 241.257,373.715 247.045,373.773 253.842 L 373.878 266.201 386.939 266.307 L 400.000 266.412 400.000 253.445 L 400.000 240.479 387.026 240.479 C 376.962 240.479,374.010 240.591,373.860 240.981 M53.838 262.200 L 53.838 266.401 58.026 266.401 C 60.329 266.401,62.213 266.315,62.213 266.209 C 62.213 265.977,56.604 260.419,56.370 260.419 C 56.279 260.419,55.672 259.874,55.021 259.209 L 53.838 257.998 53.838 262.200 M27.119 280.160 L 27.119 293.132 39.980 293.026 L 52.841 292.921 52.841 280.160 L 52.841 267.398 39.980 267.293 L 27.119 267.187 27.119 280.160 M317.329 268.157 C 318.727 270.027,319.442 270.176,319.442 268.598 C 319.442 267.261,319.379 267.198,318.027 267.198 L 316.613 267.198 317.329 268.157 M347.358 280.160 L 347.358 293.121 360.120 293.121 L 372.881 293.121 372.881 280.160 L 372.881 267.198 360.120 267.198 L 347.358 267.198 347.358 280.160 M80.558 286.335 L 80.558 293.121 93.349 293.121 C 105.316 293.121,106.132 293.076,106.006 292.423 C 105.933 292.039,105.291 291.536,104.581 291.306 C 103.871 291.075,103.074 290.672,102.811 290.408 C 102.548 290.145,102.074 289.930,101.759 289.930 C 101.443 289.930,100.447 289.586,99.545 289.164 C 95.492 287.271,94.233 286.740,93.792 286.740 C 93.533 286.740,93.320 286.560,93.320 286.341 C 93.320 286.122,92.983 285.942,92.571 285.942 C 92.159 285.942,91.607 285.682,91.343 285.364 C 91.079 285.047,90.250 284.584,89.500 284.336 C 88.749 284.089,88.136 283.721,88.136 283.518 C 88.136 283.316,87.787 283.151,87.362 283.151 C 86.936 283.151,86.497 283.003,86.385 282.824 C 86.274 282.644,84.918 281.834,83.371 281.023 L 80.558 279.550 80.558 286.335 M210.568 290.530 C 209.216 291.244,207.460 291.989,205.783 292.561 C 204.525 292.990,204.810 293.041,208.674 293.079 L 212.961 293.121 212.961 291.525 C 212.961 289.763,212.435 289.544,210.568 290.530 M240.479 292.124 C 240.479 292.921,240.678 293.121,241.476 293.121 C 242.657 293.121,242.743 292.692,241.743 291.787 C 240.746 290.884,240.479 290.956,240.479 292.124 M0.000 306.672 L 0.000 319.426 0.897 319.645 C 1.391 319.766,7.268 319.814,13.958 319.753 L 26.122 319.641 26.227 306.780 L 26.332 293.918 13.166 293.918 L 0.000 293.918 0.000 306.672 M53.838 306.885 L 53.838 319.852 66.700 319.746 L 79.561 319.641 79.667 306.780 L 79.772 293.918 66.805 293.918 L 53.838 293.918 53.838 306.885 M107.278 306.879 L 107.278 319.840 120.040 319.840 L 132.802 319.840 132.802 309.566 L 132.802 299.292 130.309 298.616 C 128.938 298.244,127.016 297.820,126.037 297.674 C 125.059 297.528,123.982 297.260,123.644 297.078 C 123.307 296.896,122.044 296.570,120.837 296.355 C 117.696 295.794,115.227 295.124,113.926 294.478 C 113.285 294.160,111.605 293.918,110.037 293.918 L 107.278 293.918 107.278 306.879 M213.853 306.780 L 213.958 319.641 226.720 319.641 L 239.482 319.641 239.587 306.780 L 239.692 293.918 226.720 293.918 L 213.748 293.918 213.853 306.780 M344.566 294.448 C 344.895 294.725,345.389 295.204,345.663 295.512 C 346.077 295.977,346.162 295.889,346.162 294.995 C 346.162 294.083,345.994 293.920,345.065 293.931 C 344.131 293.942,344.057 294.018,344.566 294.448 M373.773 306.780 L 373.878 319.641 386.939 319.746 L 400.000 319.851 400.000 306.885 L 400.000 293.918 386.834 293.918 L 373.668 293.918 373.773 306.780 M184.405 298.307 C 184.184 298.528,182.170 298.883,179.928 299.096 C 177.686 299.310,175.539 299.652,175.158 299.856 C 174.777 300.060,171.369 300.358,167.585 300.518 C 159.365 300.866,160.254 299.559,160.406 311.067 L 160.518 319.641 173.380 319.746 L 186.241 319.852 186.241 308.879 C 186.241 297.341,186.112 296.599,184.405 298.307 M267.198 318.257 C 267.198 319.743,267.270 319.840,268.371 319.840 C 270.045 319.840,270.084 319.420,268.548 317.958 L 267.198 316.674 267.198 318.257 M27.213 333.500 L 27.318 346.361 40.080 346.361 L 52.841 346.361 52.947 333.500 L 53.052 320.638 40.080 320.638 L 27.108 320.638 27.213 333.500 M80.558 333.599 L 80.558 346.560 93.320 346.560 L 106.082 346.560 106.082 333.599 L 106.082 320.638 93.320 320.638 L 80.558 320.638 80.558 333.599 M133.998 333.599 L 133.998 346.560 146.760 346.560 L 159.521 346.560 159.521 333.599 L 159.521 320.638 146.760 320.638 L 133.998 320.638 133.998 333.599 M187.133 333.500 L 187.238 346.361 200.000 346.361 L 212.762 346.361 212.867 333.500 L 212.972 320.638 200.000 320.638 L 187.028 320.638 187.133 333.500 M240.479 333.605 L 240.479 346.571 253.340 346.466 L 266.201 346.361 266.307 333.500 L 266.412 320.638 253.445 320.638 L 240.479 320.638 240.479 333.605 M371.685 320.929 C 372.014 321.054,372.415 321.354,372.576 321.595 C 372.757 321.866,372.871 321.766,372.875 321.336 C 372.879 320.867,372.587 320.648,371.984 320.670 C 371.384 320.691,371.285 320.777,371.685 320.929 M293.918 344.752 C 293.918 346.547,293.928 346.560,295.291 346.560 C 297.049 346.560,297.300 346.114,296.275 344.810 C 294.632 342.722,293.918 342.704,293.918 344.752 M0.000 360.120 L 0.000 372.881 13.161 372.881 L 26.321 372.881 26.321 360.120 L 26.321 347.358 13.161 347.358 L 0.000 347.358 0.000 360.120 M53.838 360.120 L 53.838 372.881 66.800 372.881 L 79.761 372.881 79.761 360.120 L 79.761 347.358 66.800 347.358 L 53.838 347.358 53.838 360.120 M107.278 360.120 L 107.278 372.881 120.040 372.881 L 132.802 372.881 132.802 360.120 L 132.802 347.358 120.040 347.358 L 107.278 347.358 107.278 360.120 M160.319 360.120 L 160.319 372.881 173.280 372.881 L 186.241 372.881 186.241 360.120 L 186.241 347.358 173.280 347.358 L 160.319 347.358 160.319 360.120 M213.759 360.120 L 213.759 372.881 226.720 372.881 L 239.681 372.881 239.681 360.120 L 239.681 347.358 226.720 347.358 L 213.759 347.358 213.759 360.120 M267.198 360.120 L 267.198 372.881 279.913 372.881 L 292.628 372.881 292.793 361.017 C 292.884 354.492,292.884 348.749,292.794 348.255 L 292.629 347.358 279.914 347.358 L 267.198 347.358 267.198 360.120 M387.215 351.246 C 387.176 357.515,386.267 361.278,383.404 367.010 C 381.501 370.821,381.227 371.286,380.882 371.286 C 380.700 371.286,380.458 371.645,380.343 372.084 C 380.139 372.866,380.331 372.881,390.067 372.881 L 400.000 372.881 400.000 360.120 L 400.000 347.358 393.619 347.358 L 387.238 347.358 387.215 351.246 M320.646 370.581 C 320.637 373.142,321.299 373.671,323.682 373.009 L 324.856 372.682 322.755 370.489 L 320.655 368.295 320.646 370.581 M27.119 386.441 L 27.119 398.804 40.080 398.804 L 53.041 398.804 53.041 386.441 L 53.041 374.078 40.080 374.078 L 27.119 374.078 27.119 386.441 M80.558 386.441 L 80.558 398.804 93.277 398.804 C 103.098 398.804,106.034 398.690,106.163 398.305 C 106.254 398.031,106.254 392.468,106.162 385.942 L 105.995 374.078 93.276 374.078 L 80.558 374.078 80.558 386.441 M133.918 385.942 C 133.826 392.468,133.825 398.031,133.917 398.305 C 134.045 398.690,136.982 398.804,146.802 398.804 L 159.521 398.804 159.521 386.441 L 159.521 374.078 146.803 374.078 L 134.085 374.078 133.918 385.942 M187.039 386.441 L 187.039 398.804 200.000 398.804 L 212.961 398.804 212.961 386.441 L 212.961 374.078 200.000 374.078 L 187.039 374.078 187.039 386.441 M240.479 386.441 L 240.479 398.804 253.440 398.804 L 266.401 398.804 266.401 386.441 L 266.401 374.078 253.440 374.078 L 240.479 374.078 240.479 386.441 M293.918 386.441 L 293.918 398.804 306.637 398.804 C 316.458 398.804,319.394 398.690,319.523 398.305 C 319.614 398.031,319.614 392.468,319.522 385.942 L 319.354 374.078 306.636 374.078 L 293.918 374.078 293.918 386.441 M371.884 380.399 C 371.446 380.541,370.369 381.115,369.492 381.674 C 366.990 383.267,363.717 384.432,358.325 385.648 C 357.448 385.845,354.621 386.015,352.044 386.025 C 347.872 386.040,347.353 386.118,347.311 386.740 C 347.098 389.910,347.006 397.186,347.169 397.906 L 347.373 398.804 360.127 398.804 L 372.881 398.804 372.881 389.432 C 372.881 384.277,372.836 380.078,372.782 380.100 C 372.727 380.121,372.323 380.256,371.884 380.399 " stroke="none" fill="#ececec" fill-rule="evenodd"></path><path id="path2" d="M26.720 12.829 C 26.610 19.994,26.371 26.006,26.189 26.189 C 26.006 26.371,19.994 26.617,12.829 26.735 L -0.199 26.950 13.061 27.034 L 26.321 27.119 26.321 40.080 L 26.321 53.041 13.061 53.132 L -0.199 53.224 13.161 53.432 L 26.520 53.639 26.638 65.005 C 26.703 71.256,26.647 77.134,26.514 78.066 L 26.272 79.761 13.635 79.767 C 6.164 79.770,0.752 79.931,0.399 80.160 C 0.006 80.413,4.352 80.548,13.061 80.552 L 26.321 80.558 26.321 88.235 L 26.320 95.912 24.932 98.704 C 24.168 100.239,23.534 101.765,23.523 102.094 C 23.513 102.423,23.241 103.040,22.919 103.466 C 22.596 103.892,22.333 104.651,22.333 105.153 C 22.333 106.474,21.746 106.534,10.263 106.401 C 4.618 106.335,-0.001 106.416,-0.000 106.580 C 0.000 107.134,22.189 106.938,22.630 106.381 C 22.847 106.107,23.408 104.842,23.876 103.571 C 24.345 102.299,25.132 100.505,25.624 99.583 C 26.454 98.031,26.535 97.253,26.720 89.133 L 26.919 80.359 31.084 80.244 C 35.883 80.112,35.642 80.250,38.496 76.009 C 41.678 71.281,47.675 63.728,51.518 59.610 C 53.152 57.858,53.405 57.353,53.514 55.621 L 53.639 53.639 55.607 53.515 C 57.359 53.404,57.828 53.155,59.898 51.239 C 63.446 47.953,72.075 41.137,76.027 38.498 C 80.428 35.558,80.146 36.053,80.153 31.259 L 80.160 27.223 81.655 26.976 C 82.478 26.840,86.215 26.727,89.960 26.724 L 96.769 26.720 100.129 25.292 C 101.977 24.507,104.252 23.519,105.184 23.096 L 106.879 22.329 106.879 11.164 C 106.879 3.987,106.737 0.000,106.481 0.000 C 106.224 0.000,106.082 3.988,106.082 11.167 L 106.082 22.333 105.161 22.333 C 104.655 22.333,103.892 22.596,103.466 22.919 C 103.040 23.241,102.391 23.510,102.023 23.517 C 101.655 23.524,100.149 24.158,98.676 24.925 L 95.998 26.321 88.278 26.321 L 80.558 26.321 80.552 13.061 C 80.548 4.352,80.413 0.006,80.160 0.399 C 79.931 0.752,79.770 6.164,79.767 13.635 L 79.761 26.272 78.066 26.514 C 77.134 26.647,71.256 26.703,65.005 26.638 L 53.639 26.520 53.534 13.260 C 53.476 5.967,53.297 -0.000,53.135 -0.000 C 52.974 -0.000,52.841 5.877,52.841 13.061 L 52.841 26.122 39.985 26.227 L 27.129 26.332 27.024 13.066 L 26.919 -0.199 26.720 12.829 M133.207 7.079 C 133.214 16.139,132.476 15.398,140.630 14.530 C 144.330 14.136,150.043 13.747,153.324 13.666 C 156.748 13.581,159.510 13.336,159.805 13.091 C 160.429 12.573,160.531 1.345,159.920 0.399 C 159.662 -0.001,159.532 1.929,159.528 6.222 L 159.521 12.643 156.231 12.900 C 154.422 13.040,150.406 13.157,147.308 13.158 C 143.326 13.160,141.179 13.336,139.980 13.759 C 137.518 14.627,134.011 14.569,133.956 13.659 C 133.933 13.275,133.949 10.045,133.993 6.481 C 134.047 2.015,133.936 0.000,133.636 0.000 C 133.337 0.000,133.202 2.225,133.207 7.079 M186.640 8.127 C 186.640 17.083,186.579 16.867,189.232 17.312 C 193.107 17.962,206.423 22.081,210.023 23.743 C 210.710 24.060,211.697 24.366,212.216 24.423 L 213.161 24.526 213.170 12.164 L 213.179 -0.199 213.064 11.665 L 212.949 23.529 212.058 23.517 C 211.568 23.510,210.818 23.241,210.392 22.919 C 209.967 22.596,209.136 22.333,208.547 22.333 C 207.958 22.333,207.252 22.064,206.979 21.735 C 206.706 21.406,206.078 21.137,205.583 21.137 C 205.089 21.137,204.460 20.867,204.187 20.538 C 203.914 20.209,203.384 19.940,203.009 19.940 C 202.338 19.940,197.950 18.729,195.613 17.899 C 194.955 17.665,193.340 17.238,192.024 16.950 C 190.708 16.662,189.093 16.261,188.435 16.060 L 187.238 15.694 187.238 7.847 C 187.238 3.531,187.104 -0.001,186.939 -0.000 C 186.775 -0.000,186.640 3.657,186.640 8.127 M240.080 12.829 C 239.970 19.994,239.735 26.002,239.557 26.180 C 239.379 26.358,234.803 26.562,229.387 26.634 C 218.839 26.774,217.875 26.960,220.591 28.335 C 226.326 31.238,228.486 32.493,236.141 37.374 C 240.239 39.986,240.080 40.159,240.080 33.106 L 240.080 27.176 242.173 26.928 C 243.325 26.792,249.202 26.734,255.234 26.800 L 266.201 26.919 266.201 40.080 L 266.201 53.240 262.193 53.268 C 256.025 53.310,256.051 53.060,261.585 58.982 C 266.617 64.367,266.549 64.374,266.800 58.393 L 266.999 53.639 280.060 53.534 L 293.121 53.429 293.121 66.595 L 293.121 79.761 286.417 79.761 C 278.008 79.761,277.793 79.863,279.713 82.951 C 282.662 87.697,286.888 95.994,288.504 100.212 C 290.414 105.199,291.121 106.464,292.141 106.720 C 293.068 106.952,293.121 107.121,293.121 109.828 C 293.121 111.596,293.408 113.522,293.873 114.869 C 294.287 116.068,294.938 118.395,295.320 120.040 C 295.703 121.685,296.265 123.882,296.569 124.923 C 296.874 125.963,297.221 127.668,297.341 128.711 C 297.939 133.920,297.141 133.599,309.500 133.599 L 319.840 133.599 319.840 146.760 L 319.840 159.920 310.349 159.920 C 299.268 159.920,299.903 159.667,299.892 164.088 C 299.885 167.046,298.492 178.682,297.527 183.848 C 296.915 187.121,296.615 187.039,309.149 187.039 L 319.840 187.039 319.840 200.205 L 319.840 213.371 306.780 213.266 L 293.719 213.161 293.519 208.493 C 293.318 203.768,292.707 201.799,292.143 204.059 C 291.989 204.678,291.628 205.723,291.341 206.381 C 288.707 212.416,288.750 213.759,291.574 213.759 L 293.121 213.759 293.121 226.919 L 293.121 240.080 290.751 240.080 C 287.479 240.080,287.378 240.606,290.168 243.128 C 293.010 245.698,293.264 245.661,293.519 242.641 L 293.719 240.279 306.680 240.279 L 319.641 240.279 319.641 253.440 L 319.641 266.600 318.445 266.710 C 315.010 267.024,314.976 267.500,318.197 270.210 C 319.717 271.489,319.939 271.342,320.223 268.877 L 320.439 266.999 333.400 266.999 L 346.361 266.999 346.466 280.054 L 346.571 293.109 344.962 293.367 C 342.813 293.710,342.684 294.089,344.247 295.462 C 346.034 297.031,346.293 297.009,346.796 295.244 L 347.231 293.719 360.156 293.719 L 373.081 293.719 373.186 306.780 C 373.286 319.189,373.255 319.840,372.564 319.840 C 370.753 319.840,370.240 320.862,371.505 321.949 C 372.866 323.120,373.124 323.053,373.481 321.431 L 373.742 320.239 386.971 320.148 L 400.199 320.056 387.039 319.849 L 373.878 319.641 373.773 306.780 L 373.668 293.918 386.934 293.827 L 400.199 293.735 387.039 293.528 L 373.878 293.320 373.878 280.160 L 373.878 266.999 387.039 266.794 L 400.199 266.589 387.039 266.395 L 373.878 266.201 373.878 253.440 L 373.878 240.678 387.039 240.470 L 400.199 240.263 386.939 240.171 L 373.679 240.080 373.679 226.919 L 373.679 213.759 386.839 213.759 C 395.347 213.759,400.000 213.618,400.000 213.360 C 400.000 213.102,395.345 212.961,386.834 212.961 L 373.668 212.961 373.773 200.100 L 373.878 187.238 387.039 187.031 L 400.199 186.823 386.939 186.732 L 373.679 186.640 373.679 173.480 L 373.679 160.319 386.839 160.319 C 395.347 160.319,400.000 160.178,400.000 159.920 C 400.000 159.662,395.347 159.521,386.839 159.521 L 373.679 159.521 373.679 146.760 L 373.679 133.998 386.839 133.998 C 395.347 133.998,400.000 133.857,400.000 133.599 C 400.000 133.341,395.347 133.200,386.839 133.200 L 373.679 133.200 373.679 120.040 L 373.679 106.879 386.939 106.788 L 400.199 106.696 387.039 106.489 L 373.878 106.281 373.773 93.420 L 373.668 80.558 386.834 80.558 C 395.345 80.558,400.000 80.417,400.000 80.160 C 400.000 79.902,395.347 79.761,386.839 79.761 L 373.679 79.761 373.679 66.600 L 373.679 53.440 386.939 53.348 L 400.199 53.257 387.039 53.049 L 373.878 52.841 373.878 40.080 L 373.878 27.318 387.039 27.113 L 400.199 26.908 387.039 26.714 L 373.878 26.520 373.679 13.492 C 373.569 6.327,373.345 0.330,373.180 0.166 C 373.016 0.001,372.881 5.819,372.881 13.094 L 372.881 26.321 360.120 26.321 L 347.358 26.321 347.358 13.161 C 347.358 4.653,347.217 0.000,346.959 0.000 C 346.701 0.000,346.560 4.643,346.560 13.132 L 346.560 26.264 344.467 26.512 C 343.315 26.648,337.438 26.706,331.406 26.640 L 320.439 26.520 320.334 13.260 C 320.267 4.878,320.084 0.000,319.835 0.000 C 319.584 0.000,319.442 4.773,319.442 13.161 L 319.442 26.321 306.680 26.321 L 293.918 26.321 293.912 13.061 C 293.908 4.352,293.773 0.006,293.519 0.399 C 293.291 0.752,293.130 6.164,293.127 13.635 L 293.121 26.272 291.426 26.514 C 290.494 26.647,284.616 26.703,278.365 26.638 L 266.999 26.520 266.894 13.260 C 266.836 5.967,266.657 -0.000,266.495 -0.000 C 266.334 -0.000,266.201 5.877,266.201 13.061 L 266.201 26.122 253.345 26.227 L 240.489 26.332 240.384 13.066 L 240.279 -0.199 240.080 12.829 M52.878 27.025 C 53.174 27.225,53.341 31.420,53.400 40.166 L 53.487 53.014 52.566 53.239 C 52.060 53.362,46.082 53.413,39.282 53.352 L 26.919 53.240 26.814 40.206 L 26.709 27.173 27.811 27.006 C 29.790 26.707,52.431 26.724,52.878 27.025 M319.641 40.080 L 319.641 53.240 306.680 53.240 L 293.719 53.240 293.614 40.206 L 293.509 27.173 294.611 27.003 C 295.217 26.910,301.097 26.853,307.677 26.876 L 319.641 26.919 319.641 40.080 M373.081 40.080 L 373.081 53.240 360.120 53.240 L 347.159 53.240 347.053 40.208 L 346.948 27.176 347.851 26.999 C 348.348 26.902,354.227 26.844,360.917 26.871 L 373.081 26.919 373.081 40.080 M79.680 30.507 C 79.849 35.084,79.525 35.682,76.072 37.163 C 75.688 37.327,75.374 37.647,75.374 37.873 C 75.374 38.100,75.184 38.285,74.951 38.285 C 74.496 38.285,70.033 41.505,68.318 43.071 C 67.957 43.400,66.750 44.351,65.636 45.184 C 64.521 46.018,62.053 48.127,60.151 49.870 C 57.177 52.597,56.493 53.041,55.266 53.041 L 53.838 53.041 53.838 40.074 L 53.838 27.108 66.700 27.213 L 79.561 27.318 79.680 30.507 M239.681 32.702 C 239.681 35.773,239.629 38.285,239.566 38.285 C 239.255 38.285,236.549 36.778,236.056 36.330 C 235.227 35.577,230.241 32.535,227.717 31.241 C 226.510 30.623,225.430 29.993,225.316 29.840 C 225.202 29.687,224.663 29.358,224.120 29.110 C 223.576 28.862,222.502 28.312,221.735 27.889 L 220.339 27.120 230.010 27.119 L 239.681 27.119 239.681 32.702 M292.722 40.080 L 292.722 53.041 279.960 53.041 L 267.198 53.041 267.198 40.080 L 267.198 27.119 279.960 27.119 L 292.722 27.119 292.722 40.080 M346.162 40.080 L 346.162 53.041 333.400 53.041 L 320.638 53.041 320.638 40.080 L 320.638 27.119 333.400 27.119 L 346.162 27.119 346.162 40.080 M346.466 66.700 L 346.571 79.761 333.405 79.761 L 320.239 79.761 320.239 66.595 L 320.239 53.429 333.300 53.534 L 346.361 53.639 346.466 66.700 M53.041 55.227 C 53.041 56.410,52.539 57.171,49.651 60.362 C 47.787 62.422,46.261 64.220,46.261 64.357 C 46.261 64.494,45.947 64.933,45.563 65.333 C 45.179 65.732,44.327 66.744,43.669 67.582 C 43.011 68.420,42.159 69.439,41.775 69.847 C 41.391 70.255,41.077 70.773,41.077 71.000 C 41.077 71.226,40.808 71.514,40.479 71.640 C 40.150 71.767,39.880 72.045,39.880 72.259 C 39.880 72.472,39.297 73.395,38.584 74.310 C 37.170 76.123,36.533 77.084,35.821 78.474 C 35.225 79.638,34.406 79.824,30.507 79.680 L 27.318 79.561 27.213 66.700 L 27.108 53.838 40.074 53.838 L 53.041 53.838 53.041 55.227 M266.401 58.026 C 266.401 62.900,266.413 62.890,263.809 59.998 C 262.712 58.781,260.963 56.897,259.922 55.811 L 258.030 53.838 262.215 53.838 L 266.401 53.838 266.401 58.026 M319.442 66.800 L 319.442 79.761 306.680 79.761 L 293.918 79.761 293.918 66.800 L 293.918 53.838 306.680 53.838 L 319.442 53.838 319.442 66.800 M372.881 66.800 L 372.881 79.761 360.120 79.761 L 347.358 79.761 347.358 66.800 L 347.358 53.838 360.120 53.838 L 372.881 53.838 372.881 66.800 M151.346 71.005 C 145.686 71.459,140.734 72.152,138.784 72.763 C 137.797 73.072,136.244 73.440,135.333 73.580 C 133.447 73.871,133.215 74.317,133.206 77.667 L 133.200 79.761 126.196 79.761 C 117.953 79.761,116.610 80.217,108.973 85.616 L 106.481 87.378 106.481 96.929 L 106.481 106.481 97.607 106.486 C 87.213 106.492,87.322 106.472,85.870 108.614 C 85.253 109.524,84.624 110.363,84.473 110.477 C 84.321 110.591,84.005 111.129,83.769 111.673 C 83.533 112.217,83.002 113.218,82.590 113.896 C 79.720 118.619,79.761 118.444,79.761 126.118 L 79.761 133.200 77.396 133.200 C 74.378 133.200,74.086 133.512,73.034 137.862 C 71.653 143.570,70.270 156.526,70.807 158.720 C 71.163 160.172,71.590 160.306,75.872 160.313 L 79.761 160.319 79.761 173.454 L 79.761 186.590 78.465 186.715 C 76.741 186.881,76.613 187.930,77.967 190.793 C 79.610 194.265,80.143 193.909,80.154 189.332 L 80.160 187.039 93.320 187.039 L 106.481 187.039 106.481 200.190 L 106.481 213.340 100.033 213.450 C 95.712 213.523,93.536 213.707,93.436 214.007 C 93.197 214.727,101.482 222.764,104.617 224.853 C 106.710 226.247,106.866 225.859,106.873 219.242 L 106.879 213.759 120.040 213.759 L 133.200 213.759 133.200 226.077 C 133.200 241.941,131.337 240.057,147.159 240.181 L 159.721 240.279 159.844 241.148 C 160.059 242.652,160.720 242.859,164.126 242.489 C 177.017 241.088,178.063 240.157,166.800 240.108 L 160.319 240.080 160.319 226.919 L 160.319 213.759 173.480 213.759 L 186.640 213.759 186.640 225.076 C 186.640 236.134,186.930 238.678,187.996 236.954 C 188.123 236.749,188.839 236.466,189.587 236.326 C 190.335 236.185,191.166 235.806,191.434 235.483 C 191.703 235.160,192.214 234.889,192.571 234.882 C 193.438 234.865,202.635 229.784,204.985 228.024 C 214.113 221.188,213.306 222.173,213.444 217.691 L 213.559 213.958 217.106 213.842 C 221.402 213.701,221.621 213.559,225.513 208.377 C 229.442 203.146,231.861 199.185,234.389 193.843 C 235.589 191.307,236.762 188.829,236.997 188.336 C 237.681 186.893,237.375 186.849,225.192 186.640 L 213.559 186.441 213.559 173.480 L 213.559 160.518 226.569 160.413 L 239.579 160.308 239.829 161.560 C 239.967 162.248,240.092 165.436,240.108 168.644 C 240.158 179.170,240.939 178.015,242.546 165.038 C 243.074 160.772,242.822 159.920,241.028 159.920 L 240.080 159.920 240.080 146.983 C 240.080 137.071,239.963 133.970,239.581 133.722 C 239.307 133.545,233.340 133.310,226.321 133.200 L 213.559 133.001 213.559 120.040 L 213.559 107.079 219.458 106.968 C 227.707 106.814,227.736 107.061,218.290 96.837 C 216.458 94.853,213.928 92.885,213.615 93.198 C 213.475 93.338,213.360 96.387,213.360 99.972 L 213.360 106.491 200.100 106.386 L 186.839 106.281 186.734 94.003 C 186.610 79.519,186.451 80.162,190.144 80.153 C 193.876 80.145,194.339 79.721,192.027 78.429 C 188.190 76.284,186.800 76.268,186.571 78.365 L 186.441 79.561 173.380 79.666 L 160.319 79.772 160.319 76.203 C 160.319 70.086,160.622 70.261,151.346 71.005 M159.436 75.872 L 159.550 79.761 146.774 79.761 L 133.998 79.761 133.998 77.414 L 133.998 75.067 135.892 74.466 C 136.934 74.135,138.684 73.738,139.781 73.583 C 140.877 73.428,142.107 73.123,142.513 72.906 C 143.264 72.504,153.133 71.849,157.129 71.936 L 159.322 71.984 159.436 75.872 M189.831 78.365 C 190.104 78.694,190.574 78.963,190.876 78.963 C 191.179 78.963,191.426 79.143,191.426 79.362 C 191.426 79.894,187.556 79.876,187.226 79.343 C 186.413 78.026,188.804 77.128,189.831 78.365 M159.826 93.420 L 159.931 106.481 146.765 106.481 L 133.599 106.481 133.599 93.586 C 133.599 86.494,133.721 80.569,133.871 80.420 C 134.020 80.271,139.897 80.196,146.931 80.254 L 159.721 80.359 159.826 93.420 M319.840 93.320 L 319.840 106.481 306.680 106.481 L 293.519 106.481 293.519 93.586 C 293.519 86.494,293.639 80.572,293.785 80.425 C 293.932 80.279,299.854 80.160,306.946 80.160 L 319.840 80.160 319.840 93.320 M373.186 93.420 L 373.291 106.481 360.125 106.481 L 346.959 106.481 346.959 93.586 C 346.959 86.494,347.081 80.569,347.230 80.420 C 347.380 80.271,353.257 80.196,360.291 80.254 L 373.081 80.359 373.186 93.420 M132.802 93.519 L 132.802 106.481 120.033 106.481 L 107.264 106.481 107.371 97.052 C 107.472 88.102,107.518 87.601,108.274 87.182 C 108.711 86.939,109.724 86.246,110.524 85.643 C 111.325 85.040,112.090 84.546,112.225 84.546 C 112.360 84.546,113.356 83.924,114.438 83.164 C 115.519 82.404,116.865 81.666,117.428 81.525 C 117.991 81.383,118.551 81.108,118.671 80.913 C 118.792 80.718,122.021 80.558,125.846 80.558 L 132.802 80.558 132.802 93.519 M186.241 93.525 L 186.241 106.492 173.380 106.386 L 160.518 106.281 160.413 93.420 L 160.308 80.558 173.275 80.558 L 186.241 80.558 186.241 93.525 M292.783 91.205 C 292.945 103.676,292.787 106.534,291.990 105.567 C 291.101 104.489,289.952 102.016,289.689 100.616 C 289.553 99.889,289.287 99.198,289.098 99.081 C 288.910 98.965,288.564 98.159,288.330 97.291 C 288.097 96.423,287.733 95.713,287.522 95.713 C 287.311 95.713,287.139 95.376,287.139 94.964 C 287.139 94.552,286.881 94.001,286.566 93.740 C 286.251 93.479,285.878 92.741,285.738 92.101 C 285.597 91.460,285.328 90.841,285.139 90.724 C 284.950 90.608,284.310 89.484,283.716 88.227 C 283.121 86.970,282.170 85.224,281.601 84.347 C 281.033 83.470,280.350 82.258,280.084 81.655 L 279.600 80.558 286.122 80.558 L 292.644 80.558 292.783 91.205 M346.162 93.519 L 346.162 106.481 333.400 106.481 L 320.638 106.481 320.638 93.519 L 320.638 80.558 333.400 80.558 L 346.162 80.558 346.162 93.519 M217.747 97.322 C 218.295 97.916,219.551 99.353,220.538 100.514 C 221.525 101.675,222.512 102.824,222.732 103.068 C 223.411 103.823,224.925 106.037,224.925 106.276 C 224.925 106.401,222.458 106.453,219.442 106.392 L 213.958 106.281 213.848 100.144 L 213.737 94.007 215.244 95.124 C 216.072 95.738,217.198 96.727,217.747 97.322 M133.200 120.040 L 133.200 133.200 120.040 133.200 L 106.879 133.200 106.879 120.040 L 106.879 106.879 120.040 106.879 L 133.200 106.879 133.200 120.040 M186.441 120.040 L 186.441 133.001 173.380 133.106 L 160.319 133.211 160.319 120.040 L 160.319 106.868 173.380 106.974 L 186.441 107.079 186.441 120.040 M346.560 120.040 L 346.560 133.200 333.400 133.200 L 320.239 133.200 320.239 120.040 L 320.239 106.879 333.400 106.879 L 346.560 106.879 346.560 120.040 M106.082 120.040 L 106.082 132.802 93.320 132.802 L 80.558 132.802 80.558 126.085 C 80.558 119.670,80.603 119.289,81.549 117.610 C 82.093 116.643,82.728 115.421,82.958 114.893 C 83.189 114.365,83.910 113.145,84.560 112.181 C 85.211 111.217,85.743 110.258,85.743 110.050 C 85.743 109.841,85.918 109.671,86.131 109.671 C 86.345 109.671,86.798 109.133,87.139 108.475 L 87.757 107.278 96.920 107.278 L 106.082 107.278 106.082 120.040 M159.521 120.040 L 159.521 132.802 146.760 132.802 L 133.998 132.802 133.998 120.040 L 133.998 107.278 146.760 107.278 L 159.521 107.278 159.521 120.040 M212.961 120.040 L 212.961 132.802 200.000 132.802 L 187.039 132.802 187.039 120.040 L 187.039 107.278 200.000 107.278 L 212.961 107.278 212.961 120.040 M319.442 120.040 L 319.442 132.802 309.272 132.802 L 299.103 132.802 299.103 131.380 C 299.103 130.597,298.889 129.566,298.629 129.086 C 298.368 128.607,297.929 127.139,297.652 125.823 C 296.985 122.651,296.380 120.242,295.685 117.992 C 295.371 116.976,295.115 115.799,295.115 115.377 C 295.115 114.954,294.851 114.261,294.529 113.835 C 294.143 113.324,293.939 112.077,293.931 110.169 L 293.918 107.278 306.680 107.278 L 319.442 107.278 319.442 120.040 M372.881 120.040 L 372.881 132.802 360.120 132.802 L 347.358 132.802 347.358 120.040 L 347.358 107.278 360.120 107.278 L 372.881 107.278 372.881 120.040 M0.000 133.636 C 0.000 133.936,2.015 134.047,6.481 133.993 C 10.045 133.949,13.275 133.933,13.659 133.956 C 14.565 134.011,14.615 137.305,13.754 140.143 C 13.348 141.482,13.161 143.890,13.161 147.760 C 13.161 150.872,13.044 154.792,12.903 156.470 L 12.645 159.521 6.322 159.521 C 2.274 159.521,0.000 159.668,0.000 159.930 C 0.000 160.197,2.316 160.300,6.680 160.229 L 13.360 160.120 13.599 153.739 C 13.731 150.229,14.152 144.328,14.535 140.626 C 15.117 135.009,15.143 133.837,14.695 133.553 C 13.868 133.029,0.000 133.107,0.000 133.636 M106.481 146.760 L 106.481 159.920 93.320 159.920 L 80.160 159.920 80.160 146.760 L 80.160 133.599 93.320 133.599 L 106.481 133.599 106.481 146.760 M159.920 146.760 L 159.920 159.920 146.760 159.920 L 133.599 159.920 133.599 146.760 L 133.599 133.599 146.760 133.599 L 159.920 133.599 159.920 146.760 M213.360 146.765 L 213.360 159.931 200.100 159.826 L 186.839 159.721 186.722 148.355 C 186.657 142.104,186.713 136.226,186.846 135.294 L 187.088 133.599 200.224 133.599 L 213.360 133.599 213.360 146.765 M239.137 134.711 C 239.535 135.236,239.659 138.190,239.668 147.458 L 239.681 159.521 226.720 159.521 L 213.759 159.521 213.759 146.766 L 213.759 134.011 224.626 133.882 C 237.294 133.732,238.443 133.797,239.137 134.711 M373.280 146.760 L 373.280 159.920 360.120 159.920 L 346.959 159.920 346.959 146.760 L 346.959 133.599 360.120 133.599 L 373.280 133.599 373.280 146.760 M79.761 146.760 L 79.761 159.521 76.019 159.521 C 72.488 159.521,72.263 159.471,72.045 158.636 C 71.725 157.414,72.534 143.114,72.952 142.594 C 73.138 142.363,73.417 141.186,73.570 139.980 C 73.724 138.774,74.146 136.934,74.506 135.892 L 75.162 133.998 77.462 133.998 L 79.761 133.998 79.761 146.760 M132.802 146.760 L 132.802 159.521 120.040 159.521 L 107.278 159.521 107.278 146.760 L 107.278 133.998 120.040 133.998 L 132.802 133.998 132.802 146.760 M186.241 146.760 L 186.241 159.521 173.280 159.521 L 160.319 159.521 160.319 146.760 L 160.319 133.998 173.280 133.998 L 186.241 133.998 186.241 146.760 M346.162 146.760 L 346.162 159.521 333.400 159.521 L 320.638 159.521 320.638 146.760 L 320.638 133.998 333.400 133.998 L 346.162 133.998 346.162 146.760 M133.106 173.380 L 133.001 186.441 119.940 186.546 L 106.879 186.651 106.879 173.485 L 106.879 160.319 120.045 160.319 L 133.211 160.319 133.106 173.380 M186.546 173.380 L 186.441 186.441 173.380 186.546 L 160.319 186.651 160.319 173.485 L 160.319 160.319 173.485 160.319 L 186.651 160.319 186.546 173.380 M346.466 173.380 L 346.361 186.441 333.300 186.546 L 320.239 186.651 320.239 173.485 L 320.239 160.319 333.405 160.319 L 346.571 160.319 346.466 173.380 M106.082 173.480 L 106.082 186.241 93.320 186.241 L 80.558 186.241 80.558 173.480 L 80.558 160.718 93.320 160.718 L 106.082 160.718 106.082 173.480 M159.521 173.480 L 159.521 186.241 146.760 186.241 L 133.998 186.241 133.998 173.480 L 133.998 160.718 146.760 160.718 L 159.521 160.718 159.521 173.480 M212.961 173.480 L 212.961 186.241 200.000 186.241 L 187.039 186.241 187.039 173.480 L 187.039 160.718 200.000 160.718 L 212.961 160.718 212.961 173.480 M241.806 161.282 C 241.925 161.592,241.773 163.431,241.468 165.369 C 241.163 167.308,240.845 169.611,240.763 170.489 C 240.680 171.366,240.582 169.526,240.546 166.401 C 240.481 160.937,240.947 159.044,241.806 161.282 M319.442 173.480 L 319.442 186.241 308.726 186.241 L 298.011 186.241 298.551 183.948 C 298.847 182.687,299.095 180.937,299.101 180.060 C 299.107 179.182,299.362 177.639,299.668 176.631 C 299.974 175.622,300.346 171.943,300.494 168.455 C 300.642 164.967,300.850 161.800,300.957 161.416 C 301.134 160.777,301.926 160.718,310.296 160.718 L 319.442 160.718 319.442 173.480 M372.881 173.480 L 372.881 186.241 360.120 186.241 L 347.358 186.241 347.358 173.480 L 347.358 160.718 360.120 160.718 L 372.881 160.718 372.881 173.480 M-0.000 186.939 C -0.001 187.104,3.470 187.183,7.713 187.115 L 15.427 186.993 16.075 188.711 C 16.432 189.656,16.843 191.236,16.991 192.223 C 17.138 193.210,17.446 194.377,17.676 194.816 C 17.905 195.254,18.226 196.331,18.388 197.208 C 18.758 199.209,19.826 202.460,20.570 203.850 C 20.882 204.432,21.137 205.353,21.137 205.895 C 21.137 206.438,21.383 207.086,21.685 207.337 C 21.987 207.587,22.348 208.506,22.487 209.379 C 22.627 210.253,22.919 210.967,23.135 210.967 C 23.352 210.967,23.529 211.416,23.529 211.964 L 23.529 212.961 11.665 212.967 C 3.858 212.971,0.005 213.106,0.399 213.360 C 1.208 213.883,22.949 213.884,23.927 213.361 C 24.731 212.930,24.724 212.882,23.236 208.774 C 22.839 207.677,22.405 206.600,22.272 206.381 C 22.138 206.162,21.549 204.367,20.962 202.393 C 20.376 200.419,19.712 198.470,19.488 198.061 C 19.264 197.653,18.926 196.487,18.737 195.469 C 17.987 191.430,16.800 187.316,16.290 186.993 C 15.629 186.574,0.000 186.522,-0.000 186.939 M132.802 200.000 L 132.802 212.961 120.040 212.961 L 107.278 212.961 107.278 200.000 L 107.278 187.039 120.040 187.039 L 132.802 187.039 132.802 200.000 M159.826 200.100 L 159.721 213.161 146.660 213.266 L 133.599 213.371 133.599 200.205 L 133.599 187.039 146.765 187.039 L 159.931 187.039 159.826 200.100 M186.241 200.000 L 186.241 212.961 173.280 212.961 L 160.319 212.961 160.319 200.266 C 160.319 193.283,160.439 187.451,160.585 187.305 C 160.731 187.159,166.564 187.039,173.546 187.039 L 186.241 187.039 186.241 200.000 M213.266 200.100 L 213.161 213.161 200.000 213.161 L 186.839 213.161 186.722 201.795 C 186.657 195.543,186.713 189.666,186.846 188.734 L 187.088 187.039 200.229 187.039 L 213.371 187.039 213.266 200.100 M235.616 187.382 C 236.336 187.838,235.870 189.485,234.231 192.282 C 233.500 193.530,232.901 194.835,232.901 195.182 C 232.901 195.529,232.734 195.813,232.529 195.813 C 232.325 195.813,232.044 196.169,231.906 196.605 C 231.654 197.400,230.116 200.152,228.818 202.132 C 228.436 202.714,227.914 203.594,227.657 204.088 C 227.400 204.581,227.039 204.985,226.855 204.985 C 226.671 204.985,226.520 205.245,226.520 205.563 C 226.520 205.882,226.296 206.285,226.021 206.461 C 225.746 206.636,225.031 207.498,224.431 208.375 C 223.832 209.252,222.720 210.643,221.960 211.466 L 220.579 212.961 217.169 212.961 L 213.759 212.961 213.759 200.266 C 213.759 193.283,213.878 187.451,214.025 187.305 C 214.412 186.917,234.999 186.991,235.616 187.382 M346.162 200.000 L 346.162 212.961 333.400 212.961 L 320.638 212.961 320.638 200.000 L 320.638 187.039 333.400 187.039 L 346.162 187.039 346.162 200.000 M373.186 200.100 L 373.081 213.161 360.020 213.266 L 346.959 213.371 346.959 200.205 L 346.959 187.039 360.125 187.039 L 373.291 187.039 373.186 200.100 M79.600 187.994 C 80.089 189.266,79.581 191.740,79.072 190.567 C 78.820 189.985,78.423 189.391,78.190 189.248 C 77.957 189.104,77.767 188.637,77.767 188.212 C 77.767 187.300,79.266 187.122,79.600 187.994 M292.843 212.064 C 292.678 212.777,292.358 212.961,291.283 212.961 C 290.010 212.961,289.503 212.474,290.278 211.996 C 290.469 211.878,290.741 211.202,290.882 210.494 C 291.024 209.786,291.451 208.551,291.831 207.748 L 292.522 206.289 292.787 208.728 C 292.932 210.069,292.957 211.570,292.843 212.064 M106.050 219.442 C 106.033 222.567,105.928 224.900,105.818 224.626 C 105.707 224.352,105.399 224.128,105.132 224.128 C 104.866 224.128,103.947 223.410,103.091 222.532 C 102.234 221.655,101.400 220.937,101.238 220.937 C 100.856 220.937,94.915 214.964,94.915 214.581 C 94.915 213.877,95.755 213.759,100.764 213.759 L 106.082 213.759 106.050 219.442 M159.521 226.720 L 159.521 239.681 147.988 239.681 C 137.738 239.681,136.319 239.603,135.229 238.983 L 134.003 238.285 134.001 226.022 L 133.998 213.759 146.760 213.759 L 159.521 213.759 159.521 226.720 M212.878 217.264 C 212.988 220.390,212.938 220.617,211.967 221.451 C 211.402 221.936,210.523 222.692,210.013 223.131 C 209.504 223.569,208.674 224.197,208.170 224.526 C 207.666 224.855,206.973 225.439,206.629 225.823 C 206.285 226.206,205.846 226.520,205.652 226.520 C 205.458 226.520,204.619 227.059,203.789 227.717 C 202.958 228.375,202.134 228.913,201.958 228.913 C 201.615 228.913,198.539 230.927,198.201 231.373 C 198.090 231.521,197.506 231.765,196.905 231.916 C 196.304 232.067,195.813 232.350,195.813 232.546 C 195.813 232.741,195.556 232.901,195.243 232.901 C 194.930 232.901,193.477 233.525,192.013 234.288 C 190.550 235.051,188.877 235.724,188.295 235.784 L 187.238 235.892 187.132 225.330 C 187.073 219.521,187.113 214.539,187.221 214.258 C 187.376 213.855,190.085 213.770,200.089 213.853 L 212.762 213.958 212.878 217.264 M319.442 226.720 L 319.442 239.681 306.680 239.681 L 293.918 239.681 293.918 226.720 L 293.918 213.759 306.680 213.759 L 319.442 213.759 319.442 226.720 M346.466 226.820 L 346.361 239.880 333.300 239.986 L 320.239 240.091 320.239 226.925 L 320.239 213.759 333.405 213.759 L 346.571 213.759 346.466 226.820 M372.881 226.720 L 372.881 239.681 360.120 239.681 L 347.358 239.681 347.358 226.720 L 347.358 213.759 360.120 213.759 L 372.881 213.759 372.881 226.720 M26.961 219.236 C 26.842 219.624,26.721 223.709,26.692 228.315 C 26.662 232.921,26.547 237.450,26.435 238.380 L 26.232 240.069 13.016 240.180 L -0.199 240.290 13.061 240.384 L 26.321 240.479 26.321 253.440 L 26.321 266.401 13.061 266.492 L -0.199 266.584 13.161 266.792 L 26.520 266.999 26.520 279.828 C 26.520 286.883,26.371 292.806,26.189 292.988 C 26.006 293.171,19.994 293.417,12.829 293.535 L -0.199 293.750 13.066 293.834 L 26.332 293.918 26.227 306.780 L 26.122 319.641 13.061 319.641 C 5.877 319.641,-0.000 319.773,-0.000 319.935 C -0.000 320.096,5.967 320.276,13.260 320.334 L 26.520 320.439 26.638 331.805 C 26.703 338.056,26.647 343.933,26.514 344.865 L 26.272 346.560 13.635 346.566 C 6.164 346.570,0.752 346.731,0.399 346.959 C 0.006 347.213,4.352 347.348,13.061 347.352 L 26.321 347.358 26.321 360.120 L 26.321 372.881 13.161 372.881 C 4.773 372.881,-0.000 373.024,-0.000 373.275 C -0.000 373.523,4.878 373.707,13.260 373.773 L 26.520 373.878 26.549 386.137 C 26.565 392.879,26.699 398.517,26.848 398.666 C 26.997 398.815,27.119 393.343,27.119 386.507 L 27.119 374.078 40.074 374.078 L 53.030 374.078 53.141 386.540 L 53.252 399.003 53.346 386.341 L 53.440 373.679 66.600 373.679 L 79.761 373.679 79.761 386.241 C 79.761 394.350,79.902 398.804,80.160 398.804 C 80.417 398.804,80.558 394.417,80.558 386.441 L 80.558 374.078 93.320 374.078 L 106.082 374.078 106.176 384.347 C 106.227 389.995,106.268 395.558,106.265 396.710 C 106.263 397.861,106.400 398.804,106.570 398.804 C 106.740 398.804,106.879 393.151,106.879 386.241 L 106.879 373.679 120.040 373.679 L 133.200 373.679 133.200 386.241 C 133.200 393.151,133.340 398.804,133.510 398.804 C 133.680 398.804,133.817 397.861,133.815 396.710 C 133.812 395.558,133.853 389.995,133.904 384.347 L 133.998 374.078 146.760 374.078 L 159.521 374.078 159.521 386.441 C 159.521 394.417,159.663 398.804,159.920 398.804 C 160.178 398.804,160.319 394.350,160.319 386.241 L 160.319 373.679 173.480 373.679 L 186.640 373.679 186.734 386.341 L 186.828 399.003 186.939 386.540 L 187.050 374.078 200.006 374.078 L 212.961 374.078 212.961 386.507 C 212.961 393.343,213.083 398.815,213.232 398.666 C 213.381 398.517,213.515 392.879,213.531 386.137 L 213.559 373.878 226.720 373.878 L 239.880 373.878 239.909 386.137 C 239.924 392.879,240.059 398.517,240.208 398.666 C 240.357 398.815,240.479 393.343,240.479 386.507 L 240.479 374.078 253.434 374.078 L 266.389 374.078 266.501 386.540 L 266.612 399.003 266.706 386.341 L 266.800 373.679 279.960 373.679 L 293.121 373.679 293.121 386.241 C 293.121 394.350,293.262 398.804,293.519 398.804 C 293.777 398.804,293.918 394.417,293.918 386.441 L 293.918 374.078 306.680 374.078 L 319.442 374.078 319.535 384.347 C 319.587 389.995,319.627 395.558,319.625 396.710 C 319.623 397.861,319.760 398.804,319.930 398.804 C 320.100 398.804,320.239 393.151,320.239 386.241 L 320.239 373.679 322.732 373.673 C 326.766 373.663,326.848 373.338,323.631 370.093 C 320.384 366.819,319.840 366.944,319.840 370.964 L 319.840 373.280 306.675 373.280 L 293.509 373.280 293.614 360.219 L 293.719 347.159 295.912 347.036 C 299.093 346.858,299.191 346.480,296.707 343.965 C 293.770 340.991,293.140 341.184,293.126 345.065 L 293.121 346.560 279.955 346.560 L 266.789 346.560 266.894 333.500 L 266.999 320.439 268.877 320.223 C 271.535 319.917,271.579 319.669,269.371 317.427 C 267.137 315.158,266.401 315.380,266.401 318.321 L 266.401 319.840 253.235 319.840 L 240.069 319.840 240.174 306.780 L 240.279 293.719 241.276 293.607 C 244.339 293.264,244.352 293.241,242.467 291.320 C 240.611 289.430,240.083 289.370,240.074 291.050 C 240.060 293.387,240.460 293.320,226.436 293.320 L 213.559 293.320 213.434 291.525 C 213.233 288.636,213.575 288.606,203.434 292.389 C 201.738 293.022,202.955 293.316,208.108 293.519 L 213.161 293.719 213.266 306.785 L 213.371 319.851 200.105 319.746 L 186.839 319.641 186.640 308.475 L 186.441 297.308 184.447 297.434 C 183.350 297.503,181.825 297.731,181.057 297.939 C 179.160 298.454,165.944 299.900,163.139 299.900 C 159.813 299.900,159.920 299.551,159.920 310.349 L 159.920 319.840 146.760 319.840 L 133.599 319.840 133.599 309.548 C 133.599 297.510,133.765 298.039,129.804 297.479 C 128.272 297.262,126.122 296.830,125.025 296.519 C 121.178 295.426,118.186 294.716,117.421 294.713 C 116.997 294.712,116.136 294.443,115.508 294.115 C 114.879 293.788,113.514 293.519,112.473 293.519 C 108.582 293.519,107.055 293.118,106.607 291.979 C 106.269 291.120,105.253 290.532,101.053 288.767 C 96.024 286.653,91.127 284.350,87.936 282.599 C 87.059 282.117,85.533 281.284,84.546 280.748 C 83.559 280.212,82.309 279.445,81.768 279.043 C 80.038 277.760,79.761 278.775,79.761 286.393 L 79.761 293.072 78.066 293.314 C 77.134 293.447,71.256 293.503,65.005 293.438 L 53.639 293.320 53.639 280.160 L 53.639 266.999 58.493 266.800 C 64.448 266.555,64.361 266.649,61.310 263.774 C 53.033 255.973,53.440 256.063,53.440 262.030 C 53.440 267.376,55.019 266.854,39.282 266.712 L 26.919 266.600 26.814 253.592 L 26.709 240.585 28.210 240.337 C 29.035 240.200,31.820 240.087,34.397 240.084 C 39.691 240.079,39.885 239.936,38.142 237.310 C 37.117 235.765,34.014 230.907,33.034 229.312 C 32.425 228.321,30.366 224.580,28.758 221.541 C 28.295 220.667,27.916 219.736,27.916 219.471 C 27.916 218.665,27.190 218.487,26.961 219.236 M29.902 225.442 C 30.446 226.474,31.015 227.318,31.166 227.318 C 31.318 227.318,31.560 227.854,31.704 228.510 C 31.848 229.165,32.142 229.811,32.358 229.944 C 32.574 230.078,32.921 230.574,33.130 231.046 C 33.338 231.518,34.222 232.981,35.095 234.297 C 35.967 235.613,36.852 237.076,37.060 237.548 C 37.268 238.021,37.629 238.525,37.862 238.669 C 39.095 239.431,37.821 239.681,32.702 239.681 L 27.119 239.681 27.119 230.253 L 27.119 220.826 28.016 222.196 C 28.509 222.950,29.358 224.411,29.902 225.442 M373.081 253.440 L 373.081 266.600 360.120 266.600 L 347.159 266.600 347.053 253.568 L 346.948 240.535 347.851 240.359 C 348.348 240.262,354.227 240.204,360.917 240.231 L 373.081 240.279 373.081 253.440 M168.495 240.877 C 167.356 241.367,160.718 241.367,160.718 240.877 C 160.718 240.634,162.394 240.490,165.005 240.507 C 167.772 240.525,169.009 240.656,168.495 240.877 M292.722 242.343 L 292.722 244.207 291.625 243.244 C 289.055 240.988,288.964 240.479,291.127 240.479 L 292.722 240.479 292.722 242.343 M346.162 253.440 L 346.162 266.401 333.400 266.401 L 320.638 266.401 320.638 253.440 L 320.638 240.479 333.400 240.479 L 346.162 240.479 346.162 253.440 M56.370 260.419 C 56.604 260.419,62.213 265.977,62.213 266.209 C 62.213 266.315,60.329 266.401,58.026 266.401 L 53.838 266.401 53.838 262.200 L 53.838 257.998 55.021 259.209 C 55.672 259.874,56.279 260.419,56.370 260.419 M52.841 280.160 L 52.841 292.921 39.980 293.026 L 27.119 293.132 27.119 280.160 L 27.119 267.187 39.980 267.293 L 52.841 267.398 52.841 280.160 M319.442 268.598 C 319.442 270.176,318.727 270.027,317.329 268.157 L 316.613 267.198 318.027 267.198 C 319.379 267.198,319.442 267.261,319.442 268.598 M372.881 280.160 L 372.881 293.121 360.120 293.121 L 347.358 293.121 347.358 280.160 L 347.358 267.198 360.120 267.198 L 372.881 267.198 372.881 280.160 M86.385 282.824 C 86.497 283.003,86.936 283.151,87.362 283.151 C 87.787 283.151,88.136 283.316,88.136 283.518 C 88.136 283.721,88.749 284.089,89.500 284.336 C 90.250 284.584,91.079 285.047,91.343 285.364 C 91.607 285.682,92.159 285.942,92.571 285.942 C 92.983 285.942,93.320 286.122,93.320 286.341 C 93.320 286.560,93.533 286.740,93.792 286.740 C 94.233 286.740,95.492 287.271,99.545 289.164 C 100.447 289.586,101.443 289.930,101.759 289.930 C 102.074 289.930,102.548 290.145,102.811 290.408 C 103.074 290.672,103.871 291.075,104.581 291.306 C 105.291 291.536,105.933 292.039,106.006 292.423 C 106.132 293.076,105.316 293.121,93.349 293.121 L 80.558 293.121 80.558 286.335 L 80.558 279.550 83.371 281.023 C 84.918 281.834,86.274 282.644,86.385 282.824 M212.961 291.525 L 212.961 293.121 208.674 293.079 C 204.810 293.041,204.525 292.990,205.783 292.561 C 207.460 291.989,209.216 291.244,210.568 290.530 C 212.435 289.544,212.961 289.763,212.961 291.525 M241.743 291.787 C 242.743 292.692,242.657 293.121,241.476 293.121 C 240.678 293.121,240.479 292.921,240.479 292.124 C 240.479 290.956,240.746 290.884,241.743 291.787 M53.240 306.680 L 53.240 319.641 39.980 319.746 L 26.720 319.851 26.720 306.951 C 26.720 299.856,26.842 293.929,26.991 293.780 C 27.140 293.631,33.107 293.556,40.251 293.614 L 53.240 293.719 53.240 306.680 M106.386 306.780 L 106.491 319.840 93.325 319.840 L 80.160 319.840 80.160 306.946 C 80.160 299.854,80.282 293.929,80.431 293.780 C 80.580 293.631,86.457 293.556,93.492 293.614 L 106.281 293.719 106.386 306.780 M79.667 306.780 L 79.561 319.641 66.700 319.746 L 53.838 319.852 53.838 306.885 L 53.838 293.918 66.805 293.918 L 79.772 293.918 79.667 306.780 M113.926 294.478 C 115.227 295.124,117.696 295.794,120.837 296.355 C 122.044 296.570,123.307 296.896,123.644 297.078 C 123.982 297.260,125.059 297.528,126.037 297.674 C 127.016 297.820,128.938 298.244,130.309 298.616 L 132.802 299.292 132.802 309.566 L 132.802 319.840 120.040 319.840 L 107.278 319.840 107.278 306.879 L 107.278 293.918 110.037 293.918 C 111.605 293.918,113.285 294.160,113.926 294.478 M239.587 306.780 L 239.482 319.641 226.720 319.641 L 213.958 319.641 213.853 306.780 L 213.748 293.918 226.720 293.918 L 239.692 293.918 239.587 306.780 M346.162 294.995 C 346.162 295.889,346.077 295.977,345.663 295.512 C 345.389 295.204,344.895 294.725,344.566 294.448 C 344.057 294.018,344.131 293.942,345.065 293.931 C 345.994 293.920,346.162 294.083,346.162 294.995 M186.241 308.879 L 186.241 319.852 173.380 319.746 L 160.518 319.641 160.406 311.067 C 160.254 299.559,159.365 300.866,167.585 300.518 C 171.369 300.358,174.777 300.060,175.158 299.856 C 175.539 299.652,177.686 299.310,179.928 299.096 C 182.170 298.883,184.184 298.528,184.405 298.307 C 186.112 296.599,186.241 297.341,186.241 308.879 M269.721 319.541 C 269.030 320.710,267.198 319.778,267.198 318.257 L 267.198 316.674 268.548 317.958 C 269.290 318.664,269.818 319.377,269.721 319.541 M79.761 333.400 L 79.761 346.560 66.600 346.560 L 53.440 346.560 53.440 333.666 C 53.440 326.574,53.559 320.651,53.706 320.505 C 53.852 320.359,59.774 320.239,66.866 320.239 L 79.761 320.239 79.761 333.400 M133.106 333.500 L 133.211 346.560 120.045 346.560 L 106.879 346.560 106.879 333.666 C 106.879 326.574,107.001 320.649,107.151 320.500 C 107.300 320.351,113.177 320.276,120.211 320.334 L 133.001 320.439 133.106 333.500 M186.441 333.400 L 186.441 346.361 173.380 346.466 L 160.319 346.571 160.319 333.400 L 160.319 320.228 173.380 320.334 L 186.441 320.439 186.441 333.400 M239.998 331.805 C 240.063 338.056,240.007 343.936,239.873 344.871 L 239.630 346.571 226.595 346.466 L 213.559 346.361 213.436 333.850 C 213.367 326.969,213.408 321.089,213.525 320.784 C 213.702 320.322,215.937 320.246,226.809 320.334 L 239.880 320.439 239.998 331.805 M52.947 333.500 L 52.841 346.361 40.080 346.361 L 27.318 346.361 27.213 333.500 L 27.108 320.638 40.080 320.638 L 53.052 320.638 52.947 333.500 M106.082 333.599 L 106.082 346.560 93.320 346.560 L 80.558 346.560 80.558 333.599 L 80.558 320.638 93.320 320.638 L 106.082 320.638 106.082 333.599 M159.521 333.599 L 159.521 346.560 146.760 346.560 L 133.998 346.560 133.998 333.599 L 133.998 320.638 146.760 320.638 L 159.521 320.638 159.521 333.599 M212.867 333.500 L 212.762 346.361 200.000 346.361 L 187.238 346.361 187.133 333.500 L 187.028 320.638 200.000 320.638 L 212.972 320.638 212.867 333.500 M266.307 333.500 L 266.201 346.361 253.340 346.466 L 240.479 346.571 240.479 333.605 L 240.479 320.638 253.445 320.638 L 266.412 320.638 266.307 333.500 M372.875 321.336 C 372.871 321.766,372.757 321.866,372.576 321.595 C 372.415 321.354,372.014 321.054,371.685 320.929 C 371.285 320.777,371.384 320.691,371.984 320.670 C 372.587 320.648,372.879 320.867,372.875 321.336 M296.275 344.810 C 297.300 346.114,297.049 346.560,295.291 346.560 C 293.928 346.560,293.918 346.547,293.918 344.752 C 293.918 342.704,294.632 342.722,296.275 344.810 M386.916 347.067 C 386.685 347.345,386.427 349.454,386.342 351.753 C 386.069 359.210,383.786 366.089,379.957 370.995 C 377.877 373.661,377.942 373.679,389.619 373.679 C 396.274 373.679,400.000 373.536,400.000 373.280 C 400.000 373.025,396.423 372.881,390.067 372.881 C 380.331 372.881,380.139 372.866,380.343 372.084 C 380.458 371.645,380.700 371.286,380.882 371.286 C 381.227 371.286,381.501 370.821,383.404 367.010 C 386.267 361.278,387.176 357.515,387.215 351.246 L 387.238 347.358 393.619 347.358 C 397.607 347.358,400.000 347.208,400.000 346.959 C 400.000 346.329,387.442 346.432,386.916 347.067 M53.240 360.120 L 53.240 373.081 39.980 373.186 L 26.720 373.291 26.720 360.391 C 26.720 353.296,26.842 347.369,26.991 347.220 C 27.140 347.070,33.107 346.996,40.251 347.053 L 53.240 347.159 53.240 360.120 M106.481 360.120 L 106.481 373.280 93.320 373.280 L 80.160 373.280 80.160 360.386 C 80.160 353.293,80.279 347.371,80.425 347.225 C 80.572 347.079,86.494 346.959,93.586 346.959 L 106.481 346.959 106.481 360.120 M159.920 360.120 L 159.920 373.280 146.760 373.280 L 133.599 373.280 133.599 360.120 L 133.599 346.959 146.760 346.959 L 159.920 346.959 159.920 360.120 M213.266 360.225 L 213.371 373.291 200.105 373.186 L 186.839 373.081 186.720 362.114 C 186.654 356.082,186.712 350.202,186.849 349.047 L 187.098 346.948 200.129 347.053 L 213.161 347.159 213.266 360.225 M266.401 360.120 L 266.401 373.280 253.240 373.280 L 240.080 373.280 240.080 360.386 C 240.080 353.293,240.199 347.371,240.346 347.225 C 240.492 347.079,246.414 346.959,253.506 346.959 L 266.401 346.959 266.401 360.120 M79.761 360.120 L 79.761 372.881 66.800 372.881 L 53.838 372.881 53.838 360.120 L 53.838 347.358 66.800 347.358 L 79.761 347.358 79.761 360.120 M132.802 360.120 L 132.802 372.881 120.040 372.881 L 107.278 372.881 107.278 360.120 L 107.278 347.358 120.040 347.358 L 132.802 347.358 132.802 360.120 M186.241 360.120 L 186.241 372.881 173.280 372.881 L 160.319 372.881 160.319 360.120 L 160.319 347.358 173.280 347.358 L 186.241 347.358 186.241 360.120 M239.681 360.120 L 239.681 372.881 226.720 372.881 L 213.759 372.881 213.759 360.120 L 213.759 347.358 226.720 347.358 L 239.681 347.358 239.681 360.120 M292.794 348.255 C 292.884 348.749,292.884 354.492,292.793 361.017 L 292.628 372.881 279.913 372.881 L 267.198 372.881 267.198 360.120 L 267.198 347.358 279.914 347.358 L 292.629 347.358 292.794 348.255 M323.682 373.009 C 321.299 373.671,320.637 373.142,320.646 370.581 L 320.655 368.295 322.755 370.489 L 324.856 372.682 323.682 373.009 M369.492 380.607 C 366.490 382.420,363.778 383.507,360.917 384.042 C 359.930 384.227,358.594 384.582,357.949 384.831 C 357.272 385.092,354.796 385.256,352.101 385.219 C 349.530 385.183,347.232 385.275,346.994 385.422 C 346.498 385.729,346.367 398.804,346.859 398.803 C 347.024 398.803,347.134 396.604,347.104 393.918 C 347.075 391.231,347.135 388.360,347.239 387.537 L 347.428 386.042 352.079 386.025 C 354.637 386.015,357.448 385.845,358.325 385.648 C 363.807 384.412,367.073 383.244,369.511 381.650 C 370.400 381.069,371.521 380.490,372.004 380.364 L 372.881 380.134 372.881 389.469 C 372.881 395.426,373.026 398.804,373.280 398.804 C 373.722 398.804,373.854 382.232,373.430 380.110 C 373.114 378.531,372.878 378.561,369.492 380.607 " stroke="none" fill="#f4f4f4" fill-rule="evenodd"></path><path id="path3" d="" stroke="none" fill="#f8fc100" fill-rule="evenodd"></path><path id="path4" d="" stroke="none" fill="#f8fc100" fill-rule="evenodd"></path></g></svg>