<?xml version="1.0" encoding="UTF-8"?>
<svg preserveAspectRatio="xMidYMid slice" width="1500px" height="200px" xmlns="http://www.w3.org/2000/svg" viewBox="0 0 30.19 4.52">
  <defs>
    <style>.cls-1{fill:#eff0f1;}</style>
  </defs>
  <title>MEGOGO</title>
  <g id="Layer_2" data-name="Layer 2">
    <g id="Layer_1-2" data-name="Layer 1">
      <path class="cls-1" d="M2.49,2.38,3,1.7,4,.2A.15.15,0,0,1,4.17.12H5V4.41h-.8V1.28L2.49,3.67.81,1.29V4.41H0V.13H.11c.22,0,.45,0,.67,0A.19.19,0,0,1,1,.21L2.41,2.27A1,1,0,0,1,2.49,2.38Z"></path>
      <path class="cls-1" d="M27.93,4.52A2.26,2.26,0,1,1,30.19,2.3,2.25,2.25,0,0,1,27.93,4.52Zm1.5-2.26a1.5,1.5,0,1,0-1.51,1.5A1.51,1.51,0,0,0,29.43,2.26Z"></path>
      <path class="cls-1" d="M17.52,4.52a2.26,2.26,0,1,1,2.26-2.23A2.26,2.26,0,0,1,17.52,4.52ZM19,2.26A1.5,1.5,0,0,0,17.46.76,1.52,1.52,0,0,0,16,2.27a1.51,1.51,0,0,0,1.51,1.49A1.5,1.5,0,0,0,19,2.26Z"></path>
      <path class="cls-1" d="M24.63.63l-.46.52C24,1,23.77.92,23.57.84a1.55,1.55,0,0,0-2.08,1,1.53,1.53,0,0,0,1.29,1.91,2.1,2.1,0,0,0,1.15-.21A.12.12,0,0,0,24,3.44V2.68h-.89V2h1.65a.38.38,0,0,1,0,.1V3.77a.18.18,0,0,1-.08.16,2.76,2.76,0,0,1-1.7.59,2.31,2.31,0,0,1-2.34-2A2.27,2.27,0,0,1,22.48.06a2.4,2.4,0,0,1,2.06.5Z"></path>
      <path class="cls-1" d="M14.2.64l-.46.52L13.41,1a1.6,1.6,0,0,0-2.1.42,1.53,1.53,0,0,0,1.07,2.42,2,2,0,0,0,1.13-.21.13.13,0,0,0,.08-.14V2.68h-.9V2h1.67v.09c0,.55,0,1.1,0,1.65a.18.18,0,0,1-.08.15,2.71,2.71,0,0,1-1.7.6,2.31,2.31,0,0,1-2.34-2A2.27,2.27,0,0,1,12.09.05a2.4,2.4,0,0,1,2,.5l.07.06A.08.08,0,0,0,14.2.64Z"></path>
      <path class="cls-1" d="M9.07,2.58H7.15V3.74h2.3v.67H6.36V.13H9.42V.79H7.15V1.92H9c.09,0,.12,0,.11.12Z"></path>
    </g>
  </g>
</svg>
